<?xml version="1.0" encoding="UTF-8" standalone="no"?>
<svg
   version="1.1"
   width="700"
   height="700"
   viewBox="0 0 700 700"
   id="svg9663"
   sodipodi:docname="awecg.svg"
   inkscape:version="1.2.1 (0f2f062aeb, 2022-09-21, custom)"
   inkscape:export-filename="../7ccaf31e/awecg.svg"
   inkscape:export-xdpi="96"
   inkscape:export-ydpi="96"
   xmlns:inkscape="http://www.inkscape.org/namespaces/inkscape"
   xmlns:sodipodi="http://sodipodi.sourceforge.net/DTD/sodipodi-0.dtd"
   xmlns="http://www.w3.org/2000/svg"
   xmlns:svg="http://www.w3.org/2000/svg">
  <defs
     id="defs9667" />
  <sodipodi:namedview
     id="namedview9665"
     pagecolor="#ffffff"
     bordercolor="#000000"
     borderopacity="0.25"
     inkscape:showpageshadow="2"
     inkscape:pageopacity="0.0"
     inkscape:pagecheckerboard="0"
     inkscape:deskcolor="#d1d1d1"
     showgrid="false"
     inkscape:zoom="0.7375"
     inkscape:cx="359.32203"
     inkscape:cy="346.44068"
     inkscape:window-width="1388"
     inkscape:window-height="836"
     inkscape:window-x="52"
     inkscape:window-y="27"
     inkscape:window-maximized="1"
     inkscape:current-layer="svg9663" />
  <g
     id="layer4"
     transform="translate(56.208557,-233.4988)">
    <g
       id="g9585">
      <g
         style="fill:#74dbe8;fill-opacity:1;stroke-linejoin:miter"
         id="g9583">
        <path
           d="m 163.51114,586.01135 c -0.0325,-0.015 -0.0766,-0.05 -0.098,-0.0779 -0.0305,-0.0398 -0.0686,-1.70865 -0.17491,-7.6671 -0.0747,-4.1889 -0.14249,-7.64836 -0.1505,-7.68754 -0.0102,-0.0504 -0.0241,-0.0625 -0.047,-0.0412 -0.02,0.0185 -0.28374,2.53334 -0.68576,6.53817 -0.52361,5.21613 -0.66259,6.52103 -0.69997,6.57373 -0.0256,0.0362 -0.0815,0.0732 -0.12422,0.0822 -0.18062,0.038 -0.20303,0.003 -0.7325,-1.1547 l -0.49836,-1.0893 -1.58498,-0.0601 c -0.87174,-0.0329 -1.61479,-0.0692 -1.65129,-0.0805 -0.0384,-0.0118 -0.15099,-0.1423 -0.26729,-0.3098 -0.41971,-0.6044 -0.94296,-1.1261 -1.35148,-1.3475 -0.20516,-0.1113 -0.24221,-0.1215 -0.46068,-0.1272 -0.18406,-0.005 -0.3004,0.0126 -0.51652,0.077 -0.56198,0.16737 -1.50105,0.6549 -2.37892,1.2349 l -0.41468,0.2741 -2.22718,-0.0748 c -1.56108,-0.0526 -2.26028,-0.086 -2.33787,-0.11155 -0.17333,-0.0576 -0.21549,-0.2499 -0.082,-0.3736 l 0.0751,-0.0697 2.2174,0.0834 2.2174,0.0832 0.2612,-0.17846 c 0.3764,-0.25738 0.93606,-0.59589 1.31535,-0.7959 0.95387,-0.50238 1.698,-0.69744 2.16887,-0.56844 0.58145,0.1594 1.16144,0.6273 1.73547,1.40035 l 0.26645,0.35871 1.60356,0.0603 c 0.9397,0.0352 1.63357,0.073 1.67607,0.091 0.0572,0.0242 0.13991,0.17834 0.38979,0.7254 0.29958,0.65594 0.37221,0.76868 0.3983,0.61774 0.005,-0.031 0.38184,-3.7706 0.83655,-8.31006 0.45474,-4.53944 0.8349,-8.28314 0.84482,-8.31914 0.0499,-0.1809 0.3435,-0.1899 0.41348,-0.0128 0.0285,0.0721 0.0772,2.33551 0.19673,9.13337 0.0986,5.6131 0.17012,9.04974 0.18867,9.0698 0.0209,0.0224 0.0372,0.0213 0.0542,-0.004 0.0133,-0.0199 0.19642,-0.62885 0.40687,-1.35304 0.31311,-1.07769 0.3946,-1.32592 0.4486,-1.36636 0.0616,-0.0462 0.21046,-0.0441 2.25651,0.0329 l 2.19052,0.0823 0.37845,-0.40664 c 0.46602,-0.50064 1.32635,-1.29795 1.7126,-1.5871 0.57909,-0.43326 1.08736,-0.66293 1.43765,-0.6499 0.19,0.007 0.42373,0.0894 0.61992,0.21835 0.45789,0.30075 1.01508,1.13215 1.48037,2.20898 l 0.18797,0.43517 2.16925,0.0814 2.16924,0.0816 0.0696,0.0751 c 0.0846,0.0911 0.0863,0.22175 0.004,0.31575 l -0.059,0.0675 -2.28126,-0.0785 c -2.44439,-0.0841 -2.38961,-0.079 -2.45661,-0.23285 -0.35975,-0.82665 -0.61152,-1.36151 -0.74995,-1.59315 -0.34836,-0.5828 -0.75432,-1.01934 -1.02684,-1.10375 -0.22942,-0.0711 -0.59354,0.0703 -1.12876,0.43855 -0.35379,0.2436 -1.44516,1.2477 -1.93118,1.777 -0.19243,0.2095 -0.38191,0.39175 -0.42108,0.405 -0.0401,0.0136 -0.99036,-0.0105 -2.17451,-0.0551 -1.64762,-0.0619 -2.10982,-0.0712 -2.13343,-0.0432 -0.0166,0.0197 -0.30182,0.97336 -0.63385,2.11923 -0.34579,1.19347 -0.62489,2.10677 -0.6533,2.13782 -0.0597,0.0652 -0.17632,0.0883 -0.25728,0.0509 z"
           id="path9581" />
      </g>
    </g>
    <g
       id="g9591">
      <g
         style="fill:#74dbe8;fill-opacity:1;stroke-linejoin:miter"
         id="g9589">
        <path
           d="m 131.83597,584.80914 c -0.0325,-0.015 -0.0766,-0.0498 -0.098,-0.0778 -0.0305,-0.0397 -0.0686,-1.70866 -0.17492,-7.6671 -0.0748,-4.1889 -0.1425,-7.6483 -0.15051,-7.68755 -0.0102,-0.0503 -0.0241,-0.0624 -0.047,-0.0411 -0.02,0.0185 -0.28374,2.53324 -0.68578,6.5381 -0.52359,5.21627 -0.66258,6.5211 -0.69998,6.5737 -0.0256,0.0363 -0.0815,0.0732 -0.12419,0.0822 -0.18062,0.0381 -0.20305,0.003 -0.73252,-1.1547 l -0.49837,-1.08926 -1.58496,-0.06 c -0.87176,-0.033 -1.61482,-0.0692 -1.6513,-0.0805 -0.0384,-0.0119 -0.15099,-0.1424 -0.26728,-0.3099 -0.41972,-0.60437 -0.94299,-1.1261 -1.3515,-1.34747 -0.20514,-0.11127 -0.2422,-0.12153 -0.46067,-0.1272 -0.18405,-0.005 -0.3004,0.0126 -0.51651,0.077 -0.56196,0.1673 -1.50105,0.65484 -2.3789,1.23494 l -0.41472,0.27403 -2.22717,-0.0748 c -1.56107,-0.0526 -2.26029,-0.086 -2.33787,-0.11157 -0.17333,-0.0575 -0.2155,-0.24988 -0.082,-0.37363 l 0.0751,-0.0697 2.21744,0.0834 2.21739,0.0833 0.26117,-0.17853 c 0.37644,-0.25726 0.93611,-0.59588 1.31537,-0.79577 0.9539,-0.50236 1.69804,-0.69746 2.16889,-0.56846 0.58145,0.1594 1.16143,0.62723 1.73546,1.40024 l 0.26645,0.35876 1.60356,0.0603 c 0.9397,0.0353 1.63356,0.073 1.67607,0.091 0.0571,0.0242 0.13991,0.17835 0.3898,0.72555 0.29957,0.65586 0.3722,0.7686 0.39832,0.61765 0.005,-0.031 0.38179,-3.77065 0.8365,-8.31012 0.45475,-4.53943 0.8349,-8.28313 0.84483,-8.31909 0.0499,-0.18091 0.34351,-0.18988 0.41349,-0.0127 0.0285,0.0721 0.0772,2.33556 0.19671,9.13335 0.0987,5.6131 0.17014,9.04965 0.18871,9.06975 0.0209,0.0225 0.0371,0.0213 0.0541,-0.004 0.0134,-0.0198 0.19644,-0.62884 0.40689,-1.35304 0.31311,-1.0777 0.39461,-1.32585 0.44861,-1.3663 0.0616,-0.0462 0.21045,-0.044 2.25651,0.0329 l 2.19051,0.0822 0.37843,-0.4066 c 0.46604,-0.50063 1.32634,-1.29806 1.71263,-1.58706 0.57907,-0.43329 1.08734,-0.66294 1.43766,-0.6499 0.18995,0.007 0.42369,0.0894 0.61991,0.21832 0.45787,0.30074 1.01505,1.13214 1.48034,2.20894 l 0.18798,0.4351 2.16922,0.0815 2.16927,0.0815 0.0697,0.0751 c 0.0846,0.0912 0.0863,0.22174 0.004,0.31574 l -0.059,0.0675 -2.28126,-0.0785 c -2.44442,-0.0842 -2.38964,-0.0791 -2.45662,-0.2329 -0.35976,-0.8267 -0.61153,-1.36157 -0.74999,-1.5932 -0.34834,-0.5828 -0.75427,-1.01916 -1.02682,-1.10364 -0.22939,-0.0711 -0.59352,0.0703 -1.12876,0.43848 -0.3538,0.24359 -1.44517,1.24766 -1.93116,1.77706 -0.19244,0.2095 -0.3819,0.3917 -0.42109,0.40495 -0.0401,0.0136 -0.99034,-0.0104 -2.17451,-0.055 -1.6476,-0.062 -2.1098,-0.0713 -2.13341,-0.0433 -0.0166,0.0196 -0.30185,0.9734 -0.63388,2.1192 -0.34578,1.19346 -0.62489,2.1067 -0.6533,2.13774 -0.0597,0.0652 -0.17629,0.0883 -0.25728,0.0509 z"
           id="path9587" />
      </g>
    </g>
    <g
       id="g9597">
      <g
         style="fill:#74dbe8;fill-opacity:1;stroke-linejoin:miter"
         id="g9595">
        <path
           d="m 101.00365,583.9567 c -0.0325,-0.0149 -0.0766,-0.0498 -0.098,-0.0778 -0.0305,-0.0397 -0.0686,-1.7086 -0.17491,-7.66705 -0.0748,-4.1889 -0.14249,-7.64825 -0.15049,-7.68745 -0.0102,-0.0503 -0.0241,-0.0624 -0.047,-0.0411 -0.02,0.0185 -0.28375,2.53324 -0.68579,6.53806 -0.52358,5.21619 -0.66256,6.52104 -0.69996,6.57367 -0.02562,0.0363 -0.08152,0.0733 -0.1242,0.0823 -0.18062,0.038 -0.20304,0.003 -0.73252,-1.1547 l -0.498364,-1.0894 -1.584961,-0.06 c -0.871765,-0.033 -1.614825,-0.0692 -1.651305,-0.0805 -0.03839,-0.0119 -0.15099,-0.14239 -0.267274,-0.30986 -0.419726,-0.6044 -0.942996,-1.1261 -1.351486,-1.3474 -0.205155,-0.1113 -0.24222,-0.12155 -0.46068,-0.1272 -0.18405,-0.005 -0.3004,0.0126 -0.51651,0.077 -0.561964,0.1673 -1.501074,0.6548 -2.37891,1.23487 l -0.41472,0.27403 -2.22718,-0.0747 c -1.56107,-0.0525 -2.26027,-0.086 -2.33786,-0.11155 -0.173326,-0.0576 -0.215486,-0.2499 -0.08196,-0.3736 l 0.07512,-0.0697 2.217425,0.0833 2.217385,0.0832 0.261184,-0.17854 c 0.376436,-0.25725 0.936112,-0.5958 1.315376,-0.7957 0.95389,-0.5024 1.69803,-0.6975 2.16887,-0.56854 0.581466,0.15944 1.16145,0.62734 1.73547,1.40024 l 0.26645,0.3588 1.60356,0.0603 c 0.9397,0.0353 1.63355,0.073 1.676075,0.0909 0.05715,0.0243 0.139905,0.17836 0.389801,0.72552 0.299564,0.65588 0.372194,0.76868 0.398314,0.61774 0.0054,-0.031 0.3818,-3.7706 0.836496,-8.3102 0.454744,-4.5393 0.834904,-8.283 0.844844,-8.31895 0.0499,-0.18091 0.34349,-0.18995 0.41347,-0.0129 0.0285,0.0721 0.0773,2.3356 0.19672,9.1334 0.0987,5.6131 0.17014,9.0497 0.18871,9.0697 0.0209,0.0225 0.0371,0.0214 0.0541,-0.004 0.0133,-0.0199 0.19644,-0.6289 0.40688,-1.353 0.31311,-1.0777 0.39459,-1.32597 0.44861,-1.36643 0.0616,-0.0461 0.21045,-0.044 2.25652,0.0329 l 2.19052,0.0823 0.37843,-0.40668 c 0.46604,-0.50061 1.32636,-1.29796 1.71263,-1.58696 0.57907,-0.43336 1.08733,-0.66304 1.43766,-0.6499 0.18995,0.007 0.42369,0.0893 0.61991,0.21825 0.45787,0.30072 1.01506,1.1322 1.48034,2.20905 l 0.18799,0.4351 2.16921,0.0814 2.16926,0.0815 0.0697,0.0752 c 0.0846,0.0912 0.0863,0.2217 0.004,0.31574 l -0.059,0.0675 -2.28126,-0.0785 c -2.4444,-0.0841 -2.38962,-0.079 -2.45661,-0.23285 -0.35976,-0.82665 -0.61153,-1.36155 -0.74997,-1.59308 -0.34835,-0.58297 -0.75429,-1.01937 -1.02684,-1.10382 -0.22939,-0.0711 -0.59352,0.0703 -1.12874,0.43855 -0.35381,0.2436 -1.44518,1.24767 -1.93118,1.777 -0.19243,0.2095 -0.38193,0.3917 -0.42109,0.40493 -0.0401,0.0136 -0.99035,-0.0104 -2.17453,-0.055 -1.64759,-0.0619 -2.1098,-0.0712 -2.13342,-0.0433 -0.0166,0.0196 -0.30182,0.97344 -0.63386,2.11921 -0.34578,1.19348 -0.62489,2.10669 -0.6533,2.13783 -0.0597,0.0651 -0.17629,0.0882 -0.2573,0.0508 z"
           id="path9593" />
      </g>
    </g>
    <g
       id="g9603">
      <g
         style="fill:#74dbe8;fill-opacity:1;stroke-linejoin:miter"
         id="g9601">
        <path
           d="m 69.59052,582.75745 c -0.0325,-0.0149 -0.0766,-0.0499 -0.09802,-0.0779 -0.03052,-0.0397 -0.06859,-1.70857 -0.17492,-7.66694 -0.07478,-4.18893 -0.14251,-7.64837 -0.15052,-7.68753 -0.01024,-0.0504 -0.02409,-0.0625 -0.04703,-0.0412 -0.02,0.0185 -0.28375,2.53332 -0.685765,6.53806 -0.523595,5.21615 -0.662575,6.5211 -0.699955,6.57375 -0.02564,0.0362 -0.08155,0.0731 -0.124225,0.0822 -0.180605,0.0379 -0.203035,0.003 -0.732495,-1.15473 l -0.49837,-1.08934 -1.58498,-0.0601 c -0.87175,-0.0329 -1.614816,-0.0692 -1.6513,-0.0805 -0.03838,-0.0117 -0.150985,-0.14226 -0.26728,-0.30976 -0.4197,-0.60436 -0.942978,-1.126 -1.351486,-1.3475 -0.205154,-0.11123 -0.242211,-0.1214 -0.460678,-0.12716 -0.18406,-0.005 -0.300406,0.0126 -0.516503,0.077 -0.561977,0.1674 -1.501056,0.6549 -2.378917,1.2349 l -0.414711,0.27414 -2.227175,-0.0748 c -1.56107,-0.0526 -2.260283,-0.0859 -2.337874,-0.11156 -0.173332,-0.0576 -0.215486,-0.24988 -0.08195,-0.3736 l 0.07512,-0.0697 2.217415,0.0833 2.217392,0.0833 0.261192,-0.17856 c 0.376419,-0.2573 0.936089,-0.5958 1.315363,-0.7958 0.953882,-0.5023 1.698015,-0.6974 2.16887,-0.56836 0.581468,0.15926 1.161447,0.62716 1.735482,1.40026 l 0.266448,0.3586 1.60355,0.0604 c 0.9397,0.0352 1.63356,0.0729 1.67609,0.091 0.05713,0.0242 0.13989,0.17834 0.38978,0.72544 0.29958,0.65596 0.37221,0.7687 0.39832,0.6177 0.0054,-0.0309 0.38181,-3.7705 0.8365,-8.31 0.45473,-4.5395 0.83491,-8.2831 0.84483,-8.31916 0.04991,-0.18084 0.3435,-0.18988 0.41348,-0.0127 0.02849,0.072 0.07725,2.33551 0.196716,9.1333 0.09868,5.6131 0.170158,9.04968 0.188728,9.06975 0.02089,0.0225 0.03716,0.0214 0.05416,-0.004 0.01333,-0.0199 0.19644,-0.62885 0.40687,-1.35305 0.313106,-1.0777 0.39459,-1.3259 0.44859,-1.36644 0.06164,-0.0461 0.21045,-0.044 2.25653,0.0329 l 2.190505,0.0823 0.378445,-0.4066 c 0.46602,-0.5007 1.32636,-1.298 1.71262,-1.5871 0.579086,-0.4333 1.08734,-0.66304 1.43765,-0.6499 0.189974,0.007 0.42371,0.0894 0.61992,0.21824 0.45787,0.30072 1.01506,1.13221 1.48035,2.20906 l 0.188,0.4351 2.16921,0.0815 2.16927,0.0816 0.06964,0.0751 c 0.0846,0.0911 0.08629,0.2218 0.0042,0.3157 l -0.059,0.0675 -2.28126,-0.0785 c -2.4444,-0.0842 -2.38962,-0.079 -2.45662,-0.2329 -0.35977,-0.82665 -0.61153,-1.3615 -0.74997,-1.59313 -0.34836,-0.58287 -0.7543,-1.01937 -1.02684,-1.10377 -0.2294,-0.071 -0.59352,0.0704 -1.12874,0.4385 -0.353804,0.24364 -1.445174,1.24766 -1.93118,1.777 -0.19243,0.2095 -0.38193,0.39175 -0.4211,0.40505 -0.04008,0.0136 -0.990355,-0.0105 -2.17451,-0.0551 -1.6476,-0.0619 -2.109805,-0.0713 -2.133426,-0.0433 -0.01658,0.0197 -0.301819,0.9734 -0.63385,2.1193 -0.345784,1.1934 -0.624884,2.1067 -0.653314,2.1378 -0.05969,0.0651 -0.17628,0.0883 -0.25728,0.0508 z"
           id="path9599" />
      </g>
    </g>
    <g
       id="g9609">
      <g
         style="fill:#74dbe8;fill-opacity:1;stroke-linejoin:miter"
         id="g9607">
        <path
           d="m 38.56009,581.5822 c -0.03249,-0.0149 -0.0766,-0.0499 -0.09802,-0.0779 -0.0305,-0.0396 -0.06858,-1.70853 -0.174923,-7.66693 -0.07477,-4.1889 -0.14251,-7.6484 -0.150514,-7.68756 -0.01024,-0.0503 -0.02409,-0.0625 -0.04703,-0.0411 -0.02001,0.0185 -0.283736,2.53327 -0.685768,6.5381 -0.523571,5.21624 -0.662564,6.52117 -0.699948,6.5738 -0.02563,0.0362 -0.08153,0.0732 -0.124214,0.0823 -0.180618,0.038 -0.203041,0.003 -0.732506,-1.15473 l -0.498375,-1.08933 -1.584968,-0.0601 c -0.871742,-0.033 -1.614815,-0.0691 -1.651297,-0.0806 -0.03839,-0.0118 -0.150987,-0.14235 -0.267275,-0.30975 -0.419715,-0.60443 -0.942993,-1.12616 -1.351501,-1.34754 -0.205154,-0.11126 -0.24221,-0.12152 -0.460678,-0.12719 -0.184052,-0.005 -0.3004,0.0126 -0.516503,0.077 -0.561987,0.16735 -1.501058,0.65484 -2.378912,1.2349 l -0.414718,0.27407 -2.227173,-0.0748 c -1.56107,-0.0525 -2.26028,-0.0859 -2.337872,-0.11154 -0.173324,-0.0575 -0.215484,-0.2499 -0.08196,-0.3736 l 0.07513,-0.0697 2.217415,0.0834 2.217388,0.0832 0.2612,-0.17854 c 0.376412,-0.25726 0.936081,-0.59582 1.315353,-0.79576 0.953888,-0.50245 1.698019,-0.6976 2.168875,-0.5685 0.581467,0.1593 1.161446,0.62726 1.735481,1.40034 l 0.266458,0.3587 1.603545,0.0603 c 0.939705,0.0353 1.633568,0.073 1.676079,0.091 0.05714,0.0243 0.139916,0.1783 0.389793,0.7255 0.299583,0.6559 0.372208,0.7686 0.398323,0.61775 0.0054,-0.031 0.381794,-3.77055 0.8365,-8.31018 0.454722,-4.53937 0.834887,-8.28317 0.844813,-8.31907 0.0499,-0.18093 0.343514,-0.18997 0.41349,-0.0128 0.02848,0.0721 0.07724,2.3356 0.19672,9.1334 0.09867,5.6131 0.170163,9.04966 0.188717,9.0697 0.02089,0.0224 0.03715,0.0213 0.05415,-0.004 0.01334,-0.0199 0.196441,-0.62893 0.406876,-1.35305 0.313106,-1.07765 0.394595,-1.32585 0.448604,-1.36635 0.06164,-0.0461 0.210449,-0.044 2.256516,0.0328 l 2.19052,0.0824 0.378434,-0.4066 c 0.466034,-0.50064 1.326363,-1.29806 1.712624,-1.5871 0.579072,-0.4333 1.087342,-0.663 1.437652,-0.6499 0.18998,0.007 0.42371,0.0894 0.619915,0.21823 0.457878,0.30072 1.015075,1.13227 1.480351,2.20897 l 0.18798,0.43514 2.169232,0.0814 2.169252,0.0815 0.06965,0.0752 c 0.08458,0.0912 0.08629,0.2217 0.0042,0.3157 l -0.059,0.0675 -2.281257,-0.0785 c -2.444403,-0.0842 -2.38963,-0.0791 -2.456623,-0.23286 -0.359753,-0.8266 -0.61153,-1.36154 -0.749966,-1.59308 -0.348351,-0.58286 -0.754294,-1.01926 -1.026837,-1.10376 -0.229407,-0.0711 -0.593527,0.0704 -1.128753,0.43853 -0.353798,0.24354 -1.44516,1.24767 -1.931184,1.77707 -0.19242,0.2094 -0.38191,0.3915 -0.42108,0.40476 -0.04009,0.0136 -0.990353,-0.0105 -2.17451,-0.055 -1.64761,-0.0618 -2.109815,-0.0711 -2.13342,-0.0432 -0.0166,0.0195 -0.30183,0.9733 -0.633862,2.1192 -0.345778,1.19344 -0.624886,2.1067 -0.653305,2.1378 -0.0597,0.0651 -0.176308,0.0882 -0.257293,0.0508 z"
           id="path9605" />
      </g>
    </g>
    <g
       id="g9615">
      <g
         style="fill:#74dbe8;fill-opacity:1;stroke-linejoin:miter"
         id="g9613">
        <path
           d="m 441.55823,592.3152 c -0.0325,-0.015 -0.0767,-0.05 -0.0981,-0.078 -0.0304,-0.0396 -0.0685,-1.70849 -0.17468,-7.66694 -0.0748,-4.1888 -0.14252,-7.64836 -0.15051,-7.6875 -0.0102,-0.0503 -0.0241,-0.0624 -0.0471,-0.0411 -0.02,0.0185 -0.2837,2.53324 -0.68586,6.538 -0.52356,5.2162 -0.6626,6.5211 -0.69994,6.5738 -0.0256,0.0362 -0.0816,0.0731 -0.12422,0.0822 -0.18066,0.038 -0.20306,0.003 -0.73248,-1.1547 l -0.49848,-1.0894 -1.5849,-0.06 c -0.87176,-0.033 -1.6148,-0.0692 -1.6513,-0.0806 -0.0384,-0.0117 -0.151,-0.14233 -0.26728,-0.30975 -0.41974,-0.60445 -0.94299,-1.1261 -1.35156,-1.34755 -0.20508,-0.11125 -0.24218,-0.12145 -0.46063,-0.1272 -0.18408,-0.005 -0.30042,0.0126 -0.51655,0.077 -0.56194,0.1674 -1.50097,0.65495 -2.37877,1.235 l -0.41473,0.2741 -2.22718,-0.0748 c -1.56104,-0.0527 -2.26032,-0.086 -2.33789,-0.1116 -0.17328,-0.0576 -0.21553,-0.2499 -0.082,-0.3736 l 0.0752,-0.0697 2.21735,0.0833 2.2174,0.0833 0.26124,-0.17856 c 0.3764,-0.2573 0.93603,-0.59585 1.3153,-0.7958 0.9538,-0.5025 1.69806,-0.6975 2.16889,-0.5685 0.58137,0.15926 1.16137,0.6272 1.73541,1.4003 l 0.26648,0.3586 1.60352,0.0604 c 0.93976,0.0353 1.6336,0.073 1.67608,0.091 0.0571,0.0242 0.1399,0.17834 0.38978,0.72546 0.2996,0.65594 0.37225,0.76868 0.3983,0.61774 0.005,-0.031 0.3819,-3.7706 0.83668,-8.31006 0.45472,-4.53944 0.83496,-8.28308 0.84485,-8.3191 0.0499,-0.1809 0.3435,-0.18994 0.41351,-0.0127 0.0284,0.0721 0.0772,2.3355 0.19659,9.1333 0.0986,5.613 0.17011,9.04973 0.1886,9.06975 0.021,0.0225 0.0372,0.0213 0.0542,-0.004 0.0134,-0.0198 0.19641,-0.62886 0.40692,-1.353 0.31305,-1.07774 0.3946,-1.326 0.44855,-1.36644 0.0617,-0.0462 0.21045,-0.044 2.25647,0.0328 l 2.19049,0.0823 0.37848,-0.40664 c 0.46606,-0.5006 1.32636,-1.29795 1.71266,-1.587 0.5791,-0.4333 1.0874,-0.663 1.43767,-0.6499 0.18993,0.007 0.42371,0.0894 0.61993,0.21824 0.4579,0.30072 1.01502,1.13216 1.4803,2.20906 l 0.18798,0.4351 2.16925,0.0815 2.16913,0.0815 0.0697,0.0751 c 0.0845,0.0912 0.0862,0.22175 0.004,0.3157 l -0.059,0.0675 -2.28119,-0.0785 c -2.44433,-0.0841 -2.38959,-0.079 -2.4566,-0.23285 -0.35981,-0.82665 -0.61156,-1.36152 -0.74994,-1.59315 -0.34845,-0.5829 -0.75427,-1.0192 -1.0268,-1.1037 -0.22942,-0.071 -0.59362,0.0704 -1.1289,0.4384 -0.35376,0.2436 -1.44512,1.2477 -1.93115,1.7771 -0.19239,0.20943 -0.38184,0.3917 -0.42109,0.4049 -0.04,0.0136 -0.99035,-0.0104 -2.1745,-0.055 -1.64758,-0.0619 -2.10974,-0.0713 -2.13336,-0.0433 -0.0165,0.0196 -0.30188,0.97339 -0.63385,2.11924 -0.34577,1.1935 -0.62494,2.1067 -0.65337,2.1378 -0.0597,0.0651 -0.17628,0.0882 -0.25727,0.0509 z"
           id="path9611" />
      </g>
    </g>
  </g>
  <g
     id="layer5"
     transform="translate(56.208557,-233.4988)">
    <g
       id="g9622">
      <g
         style="fill:#74dbe8;fill-opacity:1;stroke-linejoin:miter"
         id="g9620">
        <path
           d="m 303.68057,620.5376 c -0.23919,-0.1065 -0.56537,-0.3592 -0.72485,-0.56134 -0.22684,-0.28766 -0.66032,-12.49926 -1.99164,-56.10326 -0.93594,-30.65474 -1.75262,-55.97026 -1.81482,-56.25642 -0.0798,-0.36713 -0.18231,-0.4545 -0.34816,-0.29673 -0.14473,0.13761 -1.84202,18.5687 -4.413,47.92081 -3.34852,38.22791 -4.24448,47.79328 -4.5133,48.18204 -0.18446,0.2669 -0.59028,0.5424 -0.9018,0.61246 -1.31818,0.29594 -1.48548,0.0394 -5.46854,-8.3833 l -3.74903,-7.92786 -11.60669,-0.2923 c -6.38379,-0.16076 -11.82614,-0.357 -12.09421,-0.43603 -0.28208,-0.0831 -1.11836,-1.02827 -1.98538,-2.24372 -3.1279,-4.38495 -7.00659,-8.15555 -10.01716,-9.73791 -1.51183,-0.79474 -1.78399,-0.86614 -3.38361,-0.88758 -1.34772,-0.0182 -2.19771,0.11939 -3.77364,0.61048 -4.09784,1.2774 -10.92604,4.93266 -17.29779,9.25996 l -3.0101,2.04424 -16.3087,-0.34174 c -11.43118,-0.23974 -16.55209,-0.41925 -17.12251,-0.60065 -1.27387,-0.40505 -1.60027,-1.80745 -0.63449,-2.72625 l 0.54338,-0.517 16.23807,0.4051 16.2381,0.4046 1.89506,-1.33134 c 2.73119,-1.91876 6.79644,-4.44891 9.55406,-5.94656 6.93541,-3.7662 12.36405,-5.26285 15.82244,-4.3622 4.27064,1.1123 8.55938,4.48375 12.83268,10.08806 l 1.98351,2.60134 11.74292,0.2929 c 6.88163,0.1714 11.9639,0.383 12.27667,0.5108 0.42044,0.17205 1.04071,1.2921 2.92032,5.2739 2.25366,4.774 2.79571,5.5917 2.97294,4.48476 0.0364,-0.2276 2.44478,-27.6344 5.3518,-60.9043 2.90713,-33.26986 5.3424,-60.70709 5.41177,-60.97131 0.34885,-1.32835 2.4968,-1.42203 3.02551,-0.1319 0.21522,0.52502 0.78205,17.08829 2.28732,66.83525 1.243,41.0768 2.08518,66.225 2.22285,66.3697 0.15512,0.1629 0.27392,0.1528 0.39593,-0.034 0.0959,-0.1468 1.37955,-4.6205 2.85262,-9.94164 2.1918,-7.91696 2.76536,-9.74146 3.1568,-10.04266 0.44682,-0.3437 1.53636,-0.3417 16.51982,0.0319 l 16.04144,0.40016 2.73227,-3.01186 c 3.36462,-3.7085 9.58783,-9.6238 12.38849,-11.77555 4.1983,-3.22555 7.89708,-4.95435 10.46278,-4.89035 1.39107,0.0346 3.10964,0.6154 4.55773,1.5403 3.37937,2.1585 7.53494,8.19294 11.04057,16.0324 l 1.41606,3.16677 15.88577,0.39623 15.88567,0.3958 0.51698,0.5434 c 0.6275,0.6596 0.65219,1.6151 0.0598,2.3106 l -0.4256,0.49966 -16.7052,-0.36346 c -17.9,-0.3895 -17.49839,-0.3565 -18.00324,-1.4774 -2.70978,-6.0171 -4.60248,-9.9091 -5.6373,-11.5918 -2.60388,-4.23446 -5.61551,-7.3904 -7.61837,-7.9836 -1.68583,-0.4994 -4.33776,0.5699 -8.22116,3.3149 -2.56733,1.8147 -10.46244,9.26585 -13.97083,13.1851 -1.38895,1.5516 -2.75894,2.90326 -3.04447,3.0038 -0.29235,0.1028 -7.24996,0.0149 -15.9216,-0.20125 -12.06564,-0.30075 -15.44958,-0.32665 -15.6199,-0.11925 -0.1196,0.1456 -2.11886,7.1526 -4.44287,15.5711 -2.42023,8.767 -4.37848,15.47765 -4.58368,15.70727 -0.43091,0.48253 -1.28238,0.66233 -1.87848,0.39673 z"
           id="path9618" />
      </g>
    </g>
  </g>
  <g
     id="layer6"
     transform="translate(56.208557,-233.4988)">
    <g
       style="fill:#e87378;fill-opacity:1;stroke-linejoin:miter"
       id="g9627">
      <path
         d="m 393.1481,340.09912 -12.59894,0.68091 -12.37094,2.53622 -11.44882,2.01542 12.14237,-2.39631 12.37533,-2.42413 z m -22.41958,494.56134 -8.16077,-2.60636 -5.06439,-10.9336 -0.21524,-12.61464 0.85891,-12.6496 1.2009,-12.2276 2.26431,-4.24811 1.92472,-11.13365 1.06179,-11.0936 1.99912,-12.002 1.95905,-11.5483 1.10022,-11.2204 2.89986,-11.2109 5.29157,-12.0178 5.77896,-11.2251 5.83094,-10.6851 6.82553,-11.8725 7.92062,-9.98827 7.2995,-9.46923 7.59735,-10.4226 7.00757,-9.84516 6.91806,-10.33674 6.28058,-10.6274 5.75772,-10.706 5.66705,-10.22147 6.92105,-4.59729 5.4997,-11.23104 3.01452,-10.379 3.53074,-11.2408 3.88344,-11.5529 2.47178,-11.78077 1.91199,-12.44091 -1.20017,-10.34638 0.22965,-10.77292 0.64117,-12.15866 -0.10974,-12.11554 -1.92694,-11.37045 -2.09794,-11.53729 -2.55825,-11.58508 -3.46368,-11.31013 -4.35587,-10.54391 -6.0285,-10.62674 -6.40665,-10.06906 -7.03891,-9.37122 -4.82304,-4.6308 4.68068,9.21486 3.77935,9.72396 -1.78653,4.27728 -6.30496,-5.21152 -6.69334,-8.27447 -7.25447,-7.02741 -6.51389,-4.34324 -7.57788,-5.19286 -8.03726,-3.42279 -8.3654,-2.01275 -8.79537,-0.3012 -8.63513,1.8238 -11.0617,1.61866 -9.13932,1.03461 -9.96072,3.11148 -10.54246,3.68921 -8.14785,3.15402 -7.78641,1.0592 3.01966,-5.0686 7.7978,-6.67075 8.19988,-6.08841 -6.53888,-0.90869 10.3767,-4.58983 11.63755,-3.79734 12.36142,-2.07508 11.8389,-2.66635 11.95376,-0.72543 11.77243,1.45352 7.06076,0.53618 8.45255,1.57493 10.71793,6.34167 9.72933,7.92146 8.7147,9.06434 7.64602,9.6692 5.55245,7.34397 -3.9324,-10.45212 -0.8612,-4.31408 7.67905,10.552 6.6727,10.69313 6.22738,11.92952 4.52353,12.13171 -2.48886,-7.54556 -5.6702,-12.20749 -6.45123,-10.98514 -7.34765,-10.72774 -7.97,-10.02296 7.00131,7.75873 7.58542,10.74945 6.51999,10.82275 6.00426,12.15595 4.33607,12.25938 1.23849,-1.75487 -4.50366,-12.3576 -6.20135,-12.30623 -6.66428,-10.79173 -7.78367,-10.81377 -8.44408,-10.11674 -9.43132,-9.27768 -11.02944,-7.7493 -11.55286,-3.35025 -11.80883,-2.11527 -12.88057,-1.95489 -13.05586,0.44958 -11.31577,3.49918 -12.23647,2.36537 -12.13688,3.59068 -11.68232,4.96598 -11.26403,5.75554 -10.86713,6.29808 -10.51367,6.83022 -10.23597,7.13618 -9.4044,8.47172 -8.20707,9.5831 -7.66893,10.03923 -7.11956,10.26505 -5.83433,7.08062 -0.47255,-2.52078 -6.49678,8.30818 -5.04547,9.32265 -3.55838,10.15683 -0.53559,-5.11334 3.03626,-10.86728 5.77417,-11.27396 6.25238,-11.12722 5.78239,-11.73453 7.39722,-10.93897 8.04526,-10.93466 11.61395,-9.86194 9.40311,-9.13604 10.47769,-7.95298 11.43703,-6.90731 11.7697,-7.16485 13.03613,-5.8677 11.88757,-2.7561 1.8002,3.32606 -13.37805,4.60931 8.44119,-2.32037 12.19831,-2.9695 -11.93631,5.4852 5.3125,0.86253 11.52063,-1.8146 13.52749,-2.84803 13.02472,-2.1928 14.3982,1.77188 13.76332,4.51022 12.61516,6.79926 11.3359,6.17648 10.008,8.23646 8.85962,10.59133 6.90078,11.02267 4.56388,10.88037 6.71548,12.48923 4.79386,12.57993 3.65966,12.90704 2.60672,13.09619 -0.91552,11.19727 -0.11118,12.26535 0.0723,12.98666 -0.65033,12.95086 -1.35935,12.8362 -1.91827,12.6638 -1.7247,12.43076 -3.45145,13.0019 -4.47333,12.36824 -5.11172,11.84025 -5.4577,11.47885 -5.71894,11.23655 -5.95892,11.08495 -5.41037,10.7822 -6.77925,11.34397 -7.10265,10.81063 -7.15967,10.1238 -8.0086,10.4232 -7.36115,9.63236 -7.93433,10.16574 -6.40395,10.15963 -6.13367,9.18354 -6.55972,10.15619 -5.13471,10.026 -3.69891,11.47308 -3.72522,11.67816 -3.42926,10.8298 -3.63681,10.9386 -2.10555,12.03055 -1.73466,12.38205 -1.26721,12.1634 -0.89048,12.4623 -0.11745,12.2135 2.75506,9.9161 z"
         id="path9625" />
    </g>
    <g
       style="fill:#e87378;fill-opacity:1;stroke-linejoin:miter"
       id="g9631">
      <path
         d="m 41.804417,460.4796 10.369205,-7.18865 11.326918,-5.58331 10.27916,-5.42926 -11.06056,5.55372 -11.26163,5.67455 z m 321.005063,376.89424 4.84762,-7.06334 -2.7049,-11.7421 -7.5661,-10.09605 -8.43594,-9.46485 -8.44732,-8.92187 -4.39377,-1.96683 -8.34811,-7.6139 -7.642,-8.1114 -8.93943,-8.25416 -8.62957,-7.92034 -7.75006,-8.18806 -9.16584,-7.07684 -11.54976,-6.2475 -11.44862,-5.32244 -11.15848,-4.86406 -12.6723,-5.1919 -12.38177,-3.0321 -11.57285,-3.0031 -12.39282,-3.5734 -11.57279,-3.479 -11.80355,-3.9222 -11.47828,-4.54264 -11.11349,-4.92546 -10.74475,-4.59835 -8.28613,0.6131 -11.23163,-5.49835 -8.74622,-6.3495 -9.68243,-6.71355 -10.15241,-6.74375 -9.17708,-7.7895 -9.139835,-8.6543 -5.397035,-8.9084 -6.788054,-8.36847 -7.962891,-9.21069 -7.343353,-9.63708 L 46.38651,600.8285 40.968235,590.42883 35.88425,579.7091 31.684025,568.65137 28.658451,557.6517 26.903233,545.5608 25.7887,533.67847 25.601582,521.9596 l 0.969711,-6.6155 1.953949,10.14906 2.978118,9.99854 4.034272,2.28284 1.784103,-7.98304 0.212495,-10.6406 1.420516,-9.99972 2.481614,-7.42535 2.80101,-8.74896 4.249378,-7.63251 5.373292,-6.72003 6.762572,-5.63183 7.939194,-3.85505 9.730054,-5.50513 7.85341,-4.78765 9.775926,-3.65082 10.589714,-3.55127 8.37006,-2.50548 6.79989,-3.9385 -5.49356,-2.15172 -10.25023,-0.487 -10.21071,0.2196 4.60765,-4.72778 -11.01113,2.73822 -11.52099,4.13745 -11.03658,5.94171 -10.986463,5.1543 -9.886907,6.75775 -8.407393,8.36773 -5.248322,4.75367 -5.710647,6.42761 -4.576738,11.58209 -2.827058,12.22363 -1.324722,12.50409 -0.109665,12.32655 0.118042,9.206 -3.303787,-10.6675 -1.965439,-3.9358 0.40567,13.0441 1.287079,12.53843 2.397049,13.24182 3.866913,12.35669 -2.661545,-7.48639 -3.007614,-13.11975 -1.641098,-12.63324 -0.775208,-12.97961 0.148651,-12.80469 -0.772049,10.42214 0.600678,13.1426 1.487198,12.5472 2.712143,13.2839 4.093262,12.34257 -2.054413,-0.62667 -4.021134,-12.5229 -2.648652,-13.5235 -1.354217,-12.6111 -0.483536,-13.315 0.465591,-13.1695 1.75992,-13.11207 3.959548,-12.88501 7.070786,-9.7312 8.030306,-8.91272 8.975204,-9.4433 10.588277,-7.6516 11.084,-4.1756 11.115905,-5.63587 11.788711,-4.60688 12.273049,-3.24182 12.426895,-2.36163 12.44608,-1.6897 12.49325,-1.0526 12.4615,-0.64064 12.62374,0.92426 12.35954,2.53638 12.21421,3.22674 11.9188,3.74196 8.9507,2.01488 -1.17264,-2.28095 10.22676,2.57819 9.70253,4.26958 9.03951,5.84047 -2.71279,-4.36737 -9.06277,-6.72187 -11.4748,-5.36389 -11.76252,-4.95484 -11.76378,-5.7227 -12.55136,-4.104 -13.06059,-3.7032 -15.22158,-0.66736 -13.0301,-1.44977 -13.15338,0.14373 -13.26987,1.55793 -13.690575,1.55854 -13.895371,3.35986 -11.079954,5.11322 0.61781,3.73115 13.39374,-4.56343 -8.09052,3.34383 -11.45625,5.13524 12.7921,-2.98749 -3.66727,3.93927 -10.212705,5.6319 -12.431685,6.04632 -11.63271,6.2555 -10.286194,10.22949 -8.105395,12.00311 -5.794708,13.10694 -5.166169,11.83056 -2.853974,12.64331 -0.5027467,13.7992 1.3090057,12.9386 3.067643,11.393 2.354767,13.98335 3.928254,12.8765 5.024719,12.4393 5.972445,11.94304 7.589996,8.28302 7.609711,9.61999 7.907169,10.30215 8.455963,9.8308 8.945679,9.3054 9.281435,8.8264 8.98565,8.7611 10.699796,8.1533 11.118374,7.02605 11.29883,6.21755 11.3505,5.7199 11.4082,5.3683 11.50482,5.10136 10.88583,5.19864 12.31165,4.8029 12.23999,4.1833 11.86386,3.6058 12.71793,3.32166 11.72162,3.09404 12.50146,3.16396 11.28885,4.09754 10.47678,3.4923 11.40979,3.99933 10.20434,4.77037 9.95773,6.7939 10.10425,6.9399 9.35022,6.4511 9.58087,6.40984 9.04105,8.21143 8.96358,8.71649 8.46034,8.83051 8.34604,9.29763 7.58285,9.5751 3.90503,9.5221 z"
         id="path9629" />
    </g>
  </g>
  <g
     id="layer7"
     transform="translate(70.843817,-224.93396)">
    <g
       style="fill:#666666;fill-opacity:1;stroke-linejoin:miter"
       id="g9636"
       transform="translate(-14.635263,-8.564836)">
      <path
         d="m 422.6864,609.1275 v 0 c -23.02594,68.4466 -97.17892,105.26703 -165.62536,82.2411 v 0 C 188.61458,668.34265 151.79405,594.1897 174.82,525.7432 v 0 c 23.02592,-68.44632 97.17893,-105.26706 165.62534,-82.24106 v 0 c 68.44651,23.02594 105.26703,97.17896 82.24106,165.62536 v 0 m -19.6941,-6.62524 v 0 C 422.35925,544.9325 391.3899,482.56317 333.8201,463.19623 v 0 c -57.56967,-19.36695 -119.93913,11.6026 -139.30603,69.17224 v 0 c -19.36697,57.56988 11.60254,119.93913 69.17221,139.30603 v 0 c 57.56976,19.36694 119.93906,-11.6023 139.30602,-69.17224 z"
         id="path9634" />
    </g>
    <g
       style="fill:#666666;fill-opacity:1;stroke-linejoin:miter"
       id="g9640"
       transform="translate(-14.635263,-8.564836)">
      <path
         d="m 422.50153,618.6624 v 0 l 153.11731,98.95424 c 10.03051,6.48236 12.90686,19.86856 6.42449,29.89911 -6.48233,10.03051 -19.86859,12.90685 -29.89913,6.4245 v 0 L 399.02686,654.986 c -10.03049,-6.48234 -12.9068,-19.86857 -6.42446,-29.8991 6.48232,-10.0305 19.86864,-12.90685 29.89913,-6.4245 z"
         id="path9638" />
    </g>
  </g>
</svg>
