<?xml version="1.0" encoding="UTF-8" standalone="no"?>
<!-- Created with Inkscape (http://www.inkscape.org/) -->

<svg
   version="1.1"
   id="svg2"
   width="456"
   height="456"
   viewBox="0 0 456 456"
   xmlns="http://www.w3.org/2000/svg"
   xmlns:svg="http://www.w3.org/2000/svg">
  <defs
     id="defs6" />
  <g
     id="g8">
    <path
       style="fill:#000000"
       d="M 43.112326,420.41945 C 25.179425,415.59669 10.732562,400.66517 7.10171,383.20078 5.640562,376.17266 5.542643,84.73951 6.99879,76.88649 10.409536,58.492283 26.653984,42.399242 45.287503,38.954649 c 3.691145,-0.682345 23.677116,-0.940187 56.463017,-0.728438 49.81663,0.321742 50.85974,0.369212 56.74821,2.582491 8.09023,3.040853 9.03323,3.708601 45.8389,32.458902 17.6893,13.817786 33.72002,25.935306 35.62381,26.927826 3.21635,1.67679 7.46473,1.80562 60,1.81935 62.12642,0.0162 63.96742,0.16505 75.03723,6.06519 11.04149,5.88506 20.61478,18.52864 23.4424,30.96074 1.10122,4.84171 1.55893,12.15442 1.55893,24.9067 L 400,182 h 4.86351 c 24.10327,0 44.22995,17.01327 48.31614,40.84208 0.91326,5.32573 0.95265,8.75383 0.15404,13.40665 -1.46365,8.52737 -47.51113,153.19451 -50.8742,159.83121 -5.75879,11.36442 -18.01483,21.00639 -31.00104,24.38887 -8.62191,2.24572 -319.986163,2.19892 -328.346124,-0.0494 z M 367.4003,388.60611 c 1.83483,-0.76665 4.46745,-2.90415 5.85027,-4.75 C 376.85115,379.04986 422,236.58014 422,230.02455 c 0,-3.63583 -0.67419,-5.65517 -2.92584,-8.76348 -5.71571,-7.8903 6.87444,-7.34272 -161.75095,-7.03506 -149.90586,0.2735 -150.18178,0.27771 -152.93822,2.33578 -1.51878,1.13398 -3.60616,3.19324 -4.63863,4.57612 -1.40217,1.87805 -40.618479,122.9257 -52.216585,161.17515 l -1.45943,4.81307 3.214827,1.39779 c 4.804242,2.08887 313.121818,2.16852 318.115128,0.0822 z M 53.537638,253.5 C 62.502955,225.10107 68.183311,208.71802 70.266222,205.25209 74.28449,198.56575 79.94159,193.05604 87.34331,188.61995 98.85866,181.71842 92.47135,182 237.50802,182 h 130.6132 l -0.31061,-18.93004 c -0.33983,-20.71055 -0.57039,-21.56008 -7.19424,-26.50817 -2.69766,-2.01518 -4.13188,-2.07363 -63.43821,-2.58547 -65.2518,-0.56316 -62.06689,-0.30777 -72.92572,-5.84753 -2.22919,-1.13725 -19.65642,-14.22344 -38.72718,-29.08041 -21.4991,-16.74878 -36.0707,-27.420288 -38.34968,-28.085407 -2.45714,-0.717116 -19.4805,-0.971653 -51.35323,-0.767845 -46.348616,0.296374 -47.754594,0.362345 -50.438208,2.366661 -1.51831,1.133983 -3.68837,3.304381 -4.822353,4.823111 -2.050758,2.74654 -2.062741,3.35345 -2.239692,113.43821 -0.108292,67.37071 0.177909,109.69868 0.73144,108.17689 0.500138,-1.375 7.017983,-21.85 14.484101,-45.5 z"
       id="path239" />
  </g>
</svg>
