<?xml version="1.0" encoding="UTF-8" standalone="no"?>
<!-- Created with Inkscape (http://www.inkscape.org/) -->

<svg
   version="1.1"
   id="svg2"
   width="511.74393"
   height="405.51752"
   viewBox="0 0 511.74393 405.51752"
   xmlns="http://www.w3.org/2000/svg"
   xmlns:svg="http://www.w3.org/2000/svg">
  <defs
     id="defs6" />
  <g
     id="g8"
     transform="translate(0.00407124,-53.130707)">
    <path
       style="fill:#000000"
       d="M 39.829165,457.93298 C 26.556286,455.96393 12.48759,446.02059 6.1495641,434.12923 -0.37796093,421.88234 0,432.95334 0,254 0,74.554715 -0.37526885,85.281368 6.2923428,74.140205 12.798288,63.269177 23.800072,55.980088 36.730376,53.973883 41.357535,53.255955 65.527339,52.99469 108.60105,53.196992 L 173.5,53.5018 180,55.835975 c 13.04177,4.68335 18.72937,9.296853 32.59456,26.439124 15.20764,18.802011 17.99913,21.526761 23.82713,23.257491 4.17467,1.23974 18.1621,1.46741 90.15448,1.46741 82.53902,0 85.41745,0.0631 91.723,2.01069 12.27121,3.79019 22.724,13.94142 27.27622,26.48931 1.46202,4.02998 1.89013,8.90833 2.20668,25.14552 l 0.39275,20.14552 19.16259,0.45659 c 22.21879,0.52941 25.87781,1.44309 33.60643,8.39178 6.3276,5.68907 10.13838,13.35061 10.74623,21.60522 0.43333,5.88457 -1.35603,12.47471 -30.18664,111.17636 -17.66087,60.46204 -31.84986,107.28502 -33.48534,110.5 -5.61494,11.03772 -14.59111,18.74741 -27.07205,23.25234 L 414.5,458.5 230,458.63713 C 128.525,458.71255 42.948124,458.39568 39.829165,457.93298 Z M 60.56646,433.46462 c 2.679427,-1.65657 6.126308,-4.80129 7.659734,-6.98828 2.169653,-3.09438 9.5456,-27.15469 33.254586,-108.47634 16.7566,-57.475 31.71589,-107.18638 33.24288,-110.46974 5.84843,-12.57539 20.47171,-23.13999 35.27634,-25.4854 4.20381,-0.66598 50.77897,-1.03242 131.84367,-1.03731 L 427.18734,181 426.84367,162.16924 426.5,143.33849 l -3.01544,-4.87503 c -2.19436,-3.54759 -4.47186,-5.63586 -8.36419,-7.66924 L 409.77162,128 h -85.33659 c -58.61592,0 -86.99588,-0.34716 -90.63581,-1.1087 -7.17341,-1.50083 -15.61448,-6.10843 -20.71905,-11.30962 C 210.75941,113.217 203.37947,104.62049 196.6803,96.478314 187.03174,84.751441 183.3568,81.032677 179,78.587182 L 173.5,75.5 l -67,-0.304282 c -45.922259,-0.208557 -68.165547,0.03577 -70.704934,0.77664 -4.852882,1.415837 -9.352662,5.28824 -12.088916,10.403433 L 21.5,90.5 21.238035,251.95293 c -0.298191,183.7799 -0.985107,168.73067 8.105702,177.5829 6.221696,6.05842 9.905711,7.42659 19.25365,7.15041 5.932106,-0.17526 7.897242,-0.70421 11.969073,-3.22162 z m 358.98117,0.0117 c 9.32505,-5.76539 7.95226,-1.90488 41.11305,-115.61724 20.02017,-68.65159 30.22741,-105.16883 29.83436,-106.73488 -0.3286,-1.30927 -1.89394,-3.67696 -3.47851,-5.26154 l -2.88105,-2.88105 -157.89631,0.25919 -157.8963,0.25918 -4.89051,3.02366 c -2.68978,1.66301 -6.14495,4.81301 -7.67817,7 -2.1693,3.0943 -9.54439,27.1568 -33.24772,108.47634 -16.75303,57.475 -31.597057,106.86648 -32.986733,109.75885 l -2.526684,5.25884 163.822027,-0.25884 163.82203,-0.25885 z"
       id="path239" />
  </g>
</svg>
