<?xml version="1.0" encoding="UTF-8" standalone="no"?>
<svg
   id="Capa_1"
   data-name="Capa 1"
   viewBox="0 0 456 456"
   version="1.1"
   sodipodi:docname="up-and-down.svg"
   inkscape:version="1.2.1 (9c6d41e410, 2022-07-14)"
   xmlns:inkscape="http://www.inkscape.org/namespaces/inkscape"
   xmlns:sodipodi="http://sodipodi.sourceforge.net/DTD/sodipodi-0.dtd"
   xmlns="http://www.w3.org/2000/svg"
   xmlns:svg="http://www.w3.org/2000/svg">
  <defs
     id="defs7" />
  <sodipodi:namedview
     id="namedview5"
     pagecolor="#ffffff"
     bordercolor="#000000"
     borderopacity="0.25"
     inkscape:showpageshadow="2"
     inkscape:pageopacity="0.0"
     inkscape:pagecheckerboard="0"
     inkscape:deskcolor="#d1d1d1"
     showgrid="false"
     inkscape:zoom="0.51754386"
     inkscape:cx="228"
     inkscape:cy="228"
     inkscape:window-width="1440"
     inkscape:window-height="837"
     inkscape:window-x="-8"
     inkscape:window-y="-8"
     inkscape:window-maximized="1"
     inkscape:current-layer="Capa_1" />
  <path
     style="fill:#000000;stroke-width:0.24"
     d="m 84.492203,426.22513 c 0,-0.28814 -0.360838,-0.36 -1.807531,-0.36 -1.385299,0 -1.839804,-0.0841 -1.945678,-0.36 -0.101172,-0.26364 -0.516691,-0.36 -1.552469,-0.36 -1.082402,0 -1.414322,-0.0825 -1.414322,-0.35174 0,-0.24084 -0.378278,-0.40191 -1.2,-0.51092 -0.66,-0.0876 -1.2,-0.24468 -1.2,-0.3492 0,-0.10449 -0.324,-0.26116 -0.72,-0.34814 -0.396,-0.087 -0.72,-0.24898 -0.72,-0.36 0,-0.11102 -0.344882,-0.27761 -0.766404,-0.3702 -0.421522,-0.0926 -0.915238,-0.31716 -1.097143,-0.49906 -0.181906,-0.18192 -0.539023,-0.33074 -0.793596,-0.33074 -0.254571,0 -0.462857,-0.162 -0.462857,-0.36 0,-0.24 -0.24,-0.36 -0.72,-0.36 -0.48,0 -0.72,-0.12 -0.72,-0.36 0,-0.24 -0.24,-0.36 -0.72,-0.36 -0.48,0 -0.72,-0.12 -0.72,-0.36 0,-0.198 -0.162,-0.36 -0.36,-0.36 -0.198,0 -0.36,-0.162 -0.36,-0.36 0,-0.198 -0.165389,-0.36 -0.367531,-0.36 -0.202145,0 -0.428122,-0.1579 -0.502174,-0.35086 -0.07405,-0.19298 -0.363019,-0.42336 -0.642151,-0.51194 -0.279132,-0.0886 -0.779203,-0.47071 -1.111272,-0.84914 -0.332069,-0.37844 -0.74171,-0.68806 -0.910315,-0.68806 -0.168607,0 -0.306557,-0.162 -0.306557,-0.36 0,-0.198 -0.162,-0.36 -0.36,-0.36 -0.198,0 -0.36,-0.162 -0.36,-0.36 0,-0.198 -0.162,-0.36 -0.36,-0.36 -0.198,0 -0.36,-0.162 -0.36,-0.36 0,-0.198 -0.162,-0.36 -0.36,-0.36 -0.198,0 -0.36,-0.162 -0.36,-0.36 0,-0.198 -0.162,-0.36 -0.36,-0.36 -0.198,0 -0.36,-0.162 -0.36,-0.36 0,-0.198 -0.162,-0.36 -0.36,-0.36 -0.198,0 -0.36,-0.13795 -0.36,-0.30655 0,-0.1686 -0.318226,-0.58579 -0.707165,-0.9271 -0.388941,-0.34128 -0.778651,-0.90533 -0.866018,-1.25342 -0.08737,-0.34812 -0.309144,-0.63293 -0.492835,-0.63293 -0.183689,0 -0.333982,-0.162 -0.333982,-0.36 0,-0.198 -0.09942,-0.36 -0.22093,-0.36 -0.121512,0 -0.292094,-0.324 -0.37907,-0.72 -0.08698,-0.396 -0.311558,-0.72 -0.49907,-0.72 -0.218811,0 -0.34093,-0.2579 -0.34093,-0.72 0,-0.48 -0.12,-0.72 -0.36,-0.72 -0.24,0 -0.36,-0.24 -0.36,-0.72 0,-0.45434 -0.122969,-0.72 -0.33329,-0.72 -0.190887,0 -0.40062,-0.3589 -0.490875,-0.84 -0.08667,-0.462 -0.260693,-0.84 -0.386709,-0.84 -0.12602,0 -0.229126,-0.324 -0.229126,-0.72 0,-0.44921 -0.123511,-0.72 -0.328399,-0.72 -0.203575,0 -0.379107,-0.37805 -0.461801,-0.99458 -0.07337,-0.54704 -0.236604,-1.06004 -0.362738,-1.14 -0.126135,-0.08 -0.306929,-0.82042 -0.401763,-1.64542 -0.120084,-1.04462 -0.274562,-1.5 -0.508865,-1.5 -0.260544,0 -0.336434,-0.4331 -0.336434,-1.92 0,-1.54666 -0.07,-1.92 -0.36,-1.92 -0.318504,0 -0.36,-4.44 -0.36,-38.52 0,-32.70802 0.05029,-38.52 0.33329,-38.52 0.190887,0 0.40062,-0.3589 0.490875,-0.84 0.09433,-0.50282 0.297727,-0.84 0.506709,-0.84 0.19202,0 0.349126,-0.162 0.349126,-0.36 0,-0.198 0.162,-0.36 0.36,-0.36 0.198,0 0.36,-0.162 0.36,-0.36 0,-0.198 0.162,-0.36 0.36,-0.36 0.198,0 0.36,-0.162 0.36,-0.36 0,-0.26666 0.280001,-0.36 1.08,-0.36 0.799999,0 1.08,-0.0933 1.08,-0.36 0,-0.26566 0.277778,-0.36 1.060001,-0.36 0.582998,0 1.099541,0.11863 1.147867,0.26362 0.04833,0.14496 0.597329,0.32102 1.219999,0.3912 0.736474,0.083 1.132133,0.24252 1.132133,0.4564 0,0.18082 0.162,0.32878 0.36,0.32878 0.198,0 0.36,0.162 0.36,0.36 0,0.198 0.162,0.36 0.36,0.36 0.198,0 0.36,0.162 0.36,0.36 0,0.198 0.162,0.36 0.36,0.36 0.198,0 0.36,0.2083 0.36,0.46286 0,0.25457 0.161011,0.62386 0.357802,0.82066 0.313533,0.31354 0.365498,5.06777 0.42,38.4259 0.04469,27.35172 0.13649,38.11632 0.326109,38.23934 0.14515,0.0942 0.32809,0.80911 0.406529,1.58875 0.07844,0.77964 0.239983,1.48164 0.358978,1.56 0.118996,0.0784 0.283231,0.56575 0.364965,1.08307 0.08174,0.51732 0.268625,1.01475 0.415311,1.10542 0.146688,0.0907 0.326733,0.61238 0.400106,1.15942 0.08269,0.61653 0.258226,0.99458 0.461801,0.99458 0.180619,0 0.328399,0.216 0.328399,0.48 0,0.26666 0.160001,0.48 0.36,0.48 0.24,0 0.36,0.24 0.36,0.72 0,0.48 0.12,0.72 0.36,0.72 0.24,0 0.36,0.24 0.36,0.72 0,0.48 0.12,0.72 0.36,0.72 0.198,0 0.36,0.162 0.36,0.36 0,0.198 0.162,0.36 0.36,0.36 0.198,0 0.36,0.162 0.36,0.36 0,0.198 0.162,0.36 0.36,0.36 0.198,0 0.36,0.11978 0.36,0.26618 0,0.36869 1.014122,1.40463 1.38,1.40967 0.165,0.002 0.3,0.16615 0.3,0.36415 0,0.198 0.162,0.36 0.36,0.36 0.198,0 0.36,0.162 0.36,0.36 0,0.198 0.162,0.36 0.36,0.36 0.198,0 0.36,0.162 0.36,0.36 0,0.198 0.162,0.36 0.36,0.36 0.198,0 0.36,0.162 0.36,0.36 0,0.24 0.24,0.36 0.72,0.36 0.48,0 0.72,0.12 0.72,0.36 0,0.198 0.208286,0.36 0.462857,0.36 0.254573,0 0.624857,0.162 0.822857,0.36 0.198,0.198 0.530772,0.36 0.739492,0.36 0.208721,0 0.564437,0.216 0.790481,0.48 0.226044,0.264 0.701986,0.48 1.057651,0.48 0.355664,0 0.683511,0.11054 0.728549,0.24566 0.04504,0.1351 0.513036,0.31349 1.039999,0.39639 0.526964,0.0829 1.04448,0.29637 1.15004,0.47436 0.126261,0.21288 0.67367,0.32359 1.6,0.32359 0.913126,0 1.443224,0.10546 1.508074,0.3 0.07985,0.23957 29.225327,0.3 144.659997,0.3 115.43467,0 144.58015,-0.0604 144.66,-0.3 0.0661,-0.19843 0.62134,-0.3 1.63999,-0.3 1.14303,0 1.54001,-0.0846 1.54001,-0.32839 0,-0.20465 0.38249,-0.37971 1.01484,-0.46452 0.55817,-0.0749 1.05317,-0.25109 1.09999,-0.39161 0.0469,-0.14052 0.31918,-0.25694 0.60516,-0.25877 0.89782,-0.006 1.60001,-0.27981 1.60001,-0.62469 0,-0.18262 0.216,-0.33202 0.48,-0.33202 0.264,0 0.48,-0.0994 0.48,-0.22092 0,-0.12151 0.324,-0.2921 0.72,-0.37908 0.396,-0.087 0.72,-0.31157 0.72,-0.49908 0,-0.21881 0.2579,-0.34092 0.72,-0.34092 0.48,0 0.72,-0.12 0.72,-0.36 0,-0.198 0.162,-0.36 0.36,-0.36 0.198,0 0.36,-0.162 0.36,-0.36 0,-0.198 0.162,-0.36 0.36,-0.36 0.198,0 0.36,-0.162 0.36,-0.36 0,-0.19999 0.21334,-0.36 0.48,-0.36 0.264,0 0.48,-0.108 0.48,-0.24 0,-0.132 0.216,-0.456 0.48,-0.72 0.264,-0.264 0.588,-0.48 0.72,-0.48 0.132,0 0.24,-0.216 0.24,-0.48 0,-0.26666 0.16001,-0.48 0.36,-0.48 0.198,0 0.36,-0.162 0.36,-0.36 0,-0.198 0.162,-0.36 0.36,-0.36 0.198,0 0.36,-0.162 0.36,-0.36 0,-0.198 0.162,-0.36 0.36,-0.36 0.24,0 0.36,-0.24 0.36,-0.72 0,-0.4621 0.12211,-0.72 0.34092,-0.72 0.18751,0 0.4121,-0.324 0.49908,-0.72 0.087,-0.396 0.25757,-0.72 0.37908,-0.72 0.12151,0 0.22092,-0.216 0.22092,-0.48 0,-0.264 0.1494,-0.48 0.33202,-0.48 0.34488,0 0.61905,-0.70219 0.62469,-1.60001 0.002,-0.28598 0.11825,-0.55831 0.25877,-0.60516 0.14052,-0.0468 0.31673,-0.54182 0.39161,-1.09999 0.0848,-0.63235 0.25987,-1.01484 0.46452,-1.01484 0.24374,0 0.32839,-0.39698 0.32839,-1.54001 0,-1.01865 0.10157,-1.57385 0.3,-1.63999 0.23798,-0.0793 0.31286,-7.99766 0.36218,-38.29999 0.0548,-33.66394 0.10469,-38.20001 0.42,-38.20001 0.23758,0 0.35782,-0.24197 0.35782,-0.72 0,-0.48 0.12,-0.72 0.36,-0.72 0.198,0 0.36,-0.162 0.36,-0.36 0,-0.198 0.162,-0.36 0.36,-0.36 0.198,0 0.36,-0.162 0.36,-0.36 0,-0.198 0.162,-0.36 0.36,-0.36 0.198,0 0.36,-0.14796 0.36,-0.32878 0,-0.21388 0.39566,-0.37339 1.13213,-0.4564 0.62268,-0.0702 1.17168,-0.24624 1.21999,-0.3912 0.0483,-0.14499 0.56489,-0.26362 1.14787,-0.26362 0.78223,0 1.06001,0.0943 1.06001,0.36 0,0.26666 0.28001,0.36 1.08,0.36 0.79999,0 1.08,0.0933 1.08,0.36 0,0.198 0.162,0.36 0.36,0.36 0.198,0 0.36,0.162 0.36,0.36 0,0.19999 0.21334,0.36 0.48,0.36 0.27636,0 0.48,0.16001 0.48,0.37714 0,0.20743 0.162,0.53916 0.36,0.73716 0.198,0.198 0.36,0.56827 0.36,0.82284 0,0.25456 0.162,0.46286 0.36,0.46286 0.3185,0 0.36,4.44 0.36,38.52 0,34.08 -0.0415,38.52 -0.36,38.52 -0.28999,0 -0.36,0.37334 -0.36,1.92 0,1.54666 -0.07,1.92 -0.36,1.92 -0.27967,0 -0.36,0.31867 -0.36,1.42807 0,1.04909 -0.10015,1.48411 -0.37738,1.63927 -0.20755,0.11614 -0.43778,0.66152 -0.5116,1.21193 -0.0738,0.55039 -0.21941,1.00073 -0.32355,1.00073 -0.10413,0 -0.26049,0.324 -0.34747,0.72 -0.087,0.396 -0.24898,0.72 -0.36,0.72 -0.11102,0 -0.27761,0.34488 -0.3702,0.76642 -0.0926,0.42151 -0.31716,0.91521 -0.49906,1.09713 -0.18192,0.1819 -0.33074,0.53902 -0.33074,0.79359 0,0.25456 -0.162,0.46286 -0.36,0.46286 -0.24,0 -0.36,0.24 -0.36,0.72 0,0.48 -0.12,0.72 -0.36,0.72 -0.24,0 -0.36,0.24 -0.36,0.72 0,0.48 -0.12,0.72 -0.36,0.72 -0.198,0 -0.36,0.162 -0.36,0.36 0,0.198 -0.15029,0.36 -0.33398,0.36 -0.1837,0 -0.40546,0.28481 -0.49284,0.63293 -0.0874,0.34809 -0.47708,0.91214 -0.86602,1.25342 -0.38894,0.34131 -0.70716,0.7585 -0.70716,0.9271 0,0.1686 -0.162,0.30655 -0.36,0.30655 -0.198,0 -0.36,0.162 -0.36,0.36 0,0.198 -0.162,0.36 -0.36,0.36 -0.198,0 -0.36,0.162 -0.36,0.36 0,0.198 -0.162,0.36 -0.36,0.36 -0.198,0 -0.36,0.162 -0.36,0.36 0,0.198 -0.162,0.36 -0.36,0.36 -0.198,0 -0.36,0.162 -0.36,0.36 0,0.198 -0.162,0.36 -0.36,0.36 -0.198,0 -0.36,0.162 -0.36,0.36 0,0.198 -0.162,0.36 -0.36,0.36 -0.198,0 -0.36,0.162 -0.36,0.36 0,0.198 -0.13795,0.36 -0.30655,0.36 -0.1686,0 -0.58579,0.31822 -0.9271,0.70716 -0.34128,0.38894 -0.90533,0.77866 -1.25342,0.86602 -0.34812,0.0874 -0.63293,0.30914 -0.63293,0.49284 0,0.18369 -0.162,0.33398 -0.36,0.33398 -0.198,0 -0.36,0.162 -0.36,0.36 0,0.24 -0.24,0.36 -0.72,0.36 -0.48,0 -0.72,0.12 -0.72,0.36 0,0.24 -0.24,0.36 -0.72,0.36 -0.48,0 -0.72,0.12 -0.72,0.36 0,0.19999 -0.21334,0.36 -0.48,0.36 -0.264,0 -0.48,0.14777 -0.48,0.32839 0,0.20359 -0.37805,0.37911 -0.99458,0.46181 -0.54704,0.0734 -1.06112,0.24103 -1.1424,0.37258 -0.0813,0.13154 -0.44374,0.31344 -0.80542,0.4042 -0.36168,0.0908 -0.6576,0.24713 -0.6576,0.34743 0,0.10032 -0.45034,0.24278 -1.00073,0.31661 -0.55041,0.0738 -1.09579,0.30405 -1.21193,0.5116 -0.15516,0.27723 -0.59018,0.37738 -1.63927,0.37738 -1.1094,0 -1.42807,0.0803 -1.42807,0.36 0,0.28999 -0.37334,0.36 -1.92,0.36 -1.54666,0 -1.92,0.07 -1.92,0.36 0,0.31961 -16.32,0.36 -145.44,0.36 -129.12,0 -145.439997,-0.0404 -145.439997,-0.36 z m 46.559997,-90 c 0,-0.198 -0.16539,-0.36 -0.36753,-0.36 -0.20215,0 -0.4297,-0.162 -0.50568,-0.36 -0.076,-0.198 -0.28859,-0.36 -0.47247,-0.36 -0.18387,0 -0.33432,-0.162 -0.33432,-0.36 0,-0.198 -0.162,-0.36 -0.36,-0.36 -0.2,0 -0.36,-0.21334 -0.36,-0.48 0,-0.26666 -0.16,-0.48 -0.36,-0.48 -0.31929,0 -0.36,-9.19999 -0.36,-81.36 0,-72.16 -0.0407,-81.36 -0.36,-81.36 -0.28308,0 -0.36,-0.33333 -0.36,-1.56 0,-1.22667 -0.0769,-1.56 -0.36,-1.56 -0.224,0 -0.36,-0.22667 -0.36,-0.6 0,-0.37333 -0.136,-0.6 -0.36,-0.6 -0.198,0 -0.36,-0.162 -0.36,-0.36 0,-0.198 -0.138,-0.36 -0.30666,-0.36 -0.16867,0 -0.49161,-0.216 -0.71765,-0.48 -0.22605,-0.264 -0.61905,-0.48 -0.87334,-0.48 -0.25429,0 -0.50733,-0.135 -0.5623,-0.3 -0.0784,-0.23524 -3.63175,-0.31401 -16.46,-0.36489 -14.252825,-0.0565 -16.360047,-0.11064 -16.360047,-0.42 0,-0.24584 -0.258478,-0.35511 -0.84,-0.35511 -0.586666,0 -0.84,-0.10857 -0.84,-0.36 0,-0.24 -0.24,-0.36 -0.72,-0.36 -0.48,0 -0.72,-0.12 -0.72,-0.36 0,-0.198 -0.162,-0.36 -0.36,-0.36 -0.198,0 -0.36,-0.162 -0.36,-0.36 0,-0.198 -0.162,-0.36 -0.36,-0.36 -0.198,0 -0.36,-0.162 -0.36,-0.36 0,-0.198 -0.162,-0.36 -0.36,-0.36 -0.199999,0 -0.36,-0.21333 -0.36,-0.48 0,-0.26667 -0.160001,-0.48 -0.36,-0.48 -0.22519,0 -0.36,-0.2275 -0.36,-0.60753 0,-0.33415 -0.162,-0.6697 -0.36,-0.74568 -0.205207,-0.0788 -0.36,-0.43669 -0.36,-0.83247 0,-0.43076 -0.12588,-0.69432 -0.331613,-0.69432 -0.684883,0 -0.77957,-6.3149 -0.101141,-6.74541 0.126032,-0.08 0.289181,-0.59298 0.362554,-1.14 0.08269,-0.61655 0.258226,-0.99459 0.461801,-0.99459 0.180619,0 0.328399,-0.216 0.328399,-0.48 0,-0.26667 0.160001,-0.48 0.36,-0.48 0.24,0 0.36,-0.24 0.36,-0.72 0,-0.48 0.12,-0.72 0.36,-0.72 0.198,0 0.36,-0.162 0.36,-0.36 0,-0.198 0.162,-0.36 0.36,-0.36 0.198,0 0.36,-0.162 0.36,-0.36 0,-0.198 0.162,-0.36 0.36,-0.36 0.198,0 0.36,-0.162 0.36,-0.36 0,-0.198 0.162,-0.36 0.36,-0.36 0.198,0 0.36,-0.16539 0.36,-0.36753 0,-0.20215 0.162,-0.4297 0.36,-0.50568 0.198,-0.076 0.36,-0.28965 0.36,-0.47482 0,-0.18517 0.216,-0.52161 0.48,-0.74766 0.264,-0.22604 0.48,-0.54898 0.48,-0.71765 0,-0.16866 0.162,-0.30666 0.36,-0.30666 0.198,0 0.36,-0.162 0.36,-0.36 0,-0.198 0.162,-0.36 0.36,-0.36 0.198,0 0.36,-0.162 0.36,-0.36 0,-0.198 0.162,-0.36 0.36,-0.36 0.24,0 0.36,-0.24 0.36,-0.72 0,-0.48 0.12,-0.72 0.36,-0.72 0.198,0 0.36,-0.162 0.36,-0.36 0,-0.198 0.162,-0.36 0.36,-0.36 0.198,0 0.36,-0.13795 0.36,-0.30656 0,-0.1686 0.318226,-0.58579 0.707165,-0.92708 0.388941,-0.34129 0.778651,-0.90534 0.866018,-1.25344 0.08737,-0.34811 0.309144,-0.63292 0.492835,-0.63292 0.183689,0 0.333982,-0.162 0.333982,-0.36 0,-0.198 0.162,-0.36 0.36,-0.36 0.198,0 0.36,-0.162 0.36,-0.36 0,-0.198 0.162,-0.36 0.36,-0.36 0.199999,0 0.36,-0.21333 0.36,-0.48 0,-0.26667 0.160001,-0.48 0.36,-0.48 0.223999,0 0.36,-0.22667 0.36,-0.6 0,-0.37333 0.136001,-0.6 0.36,-0.6 0.198,0 0.36,-0.16539 0.36,-0.36753 0,-0.20215 0.162,-0.4297 0.36,-0.50568 0.198,-0.076 0.36,-0.28859 0.36,-0.47247 0,-0.18387 0.162,-0.33432 0.36,-0.33432 0.198,0 0.359997,-0.162 0.359997,-0.36 0,-0.198 0.15342,-0.36 0.34093,-0.36 0.18752,0 0.4121,-0.324 0.49907,-0.72 0.087,-0.396 0.31156,-0.72 0.49907,-0.72 0.18751,0 0.34093,-0.162 0.34093,-0.36 0,-0.198 0.162,-0.36 0.36,-0.36 0.198,0 0.36,-0.162 0.36,-0.36 0,-0.198 0.162,-0.36 0.36,-0.36 0.2,0 0.36,-0.21333 0.36,-0.48 0,-0.26667 0.16,-0.48 0.36,-0.48 0.198,0 0.36,-0.162 0.36,-0.36 0,-0.198 0.15342,-0.36 0.34093,-0.36 0.18751,0 0.41209,-0.324 0.49907,-0.72 0.087,-0.396 0.25756,-0.72 0.37907,-0.72 0.12151,0 0.22093,-0.162 0.22093,-0.36 0,-0.198 0.162,-0.36 0.36,-0.36 0.198,0 0.36,-0.162 0.36,-0.36 0,-0.198 0.162,-0.36 0.36,-0.36 0.198,0 0.36,-0.138 0.36,-0.30666 0,-0.16867 0.216,-0.49161 0.48,-0.71765 0.264,-0.22605 0.48,-0.57405 0.48,-0.77334 0,-0.19929 0.162,-0.36235 0.36,-0.36235 0.2,0 0.36,-0.21333 0.36,-0.48 0,-0.26666 0.16,-0.48 0.36,-0.48 0.198,0 0.36,-0.162 0.36,-0.36 0,-0.198 0.162,-0.36 0.36,-0.36 0.198,0 0.36,-0.162 0.36,-0.36 0,-0.198 0.15342,-0.36 0.34093,-0.36 0.18751,0 0.41209,-0.324 0.49907,-0.72 0.087,-0.396 0.25756,-0.72 0.37907,-0.72 0.12151,0 0.22093,-0.162 0.22093,-0.36 0,-0.198 0.16539,-0.36 0.36753,-0.36 0.20215,0 0.43889,-0.189 0.52609,-0.42 0.0872,-0.231 0.46182,-0.72531 0.83247,-1.09846 0.37065,-0.37315 0.67391,-0.8206 0.67391,-0.99432 0,-0.17373 0.162,-0.37803 0.36,-0.45401 0.198,-0.076 0.36,-0.30353 0.36,-0.50568 0,-0.20214 0.162,-0.36753 0.36,-0.36753 0.198,0 0.36,-0.162 0.36,-0.36 0,-0.198 0.162,-0.36 0.36,-0.36 0.198,0 0.36,-0.162 0.36,-0.36 0,-0.198 0.15342,-0.36 0.34093,-0.36 0.18751,0 0.41209,-0.324 0.49907,-0.72 0.087,-0.396 0.25756,-0.72 0.37907,-0.72 0.12151,0 0.22093,-0.162 0.22093,-0.36 0,-0.198 0.16539,-0.36 0.36753,-0.36 0.20215,0 0.43823,-0.18422 0.52463,-0.40937 0.23633,-0.61588 0.85529,-1.27063 1.20118,-1.27063 0.16866,0 0.30666,-0.162 0.30666,-0.36 0,-0.198 0.0994,-0.36 0.22093,-0.36 0.12151,0 0.29209,-0.324 0.37907,-0.72 0.087,-0.396 0.31156,-0.72 0.49907,-0.72 0.18751,0 0.34093,-0.162 0.34093,-0.36 0,-0.198 0.162,-0.36 0.36,-0.36 0.2,0 0.36,-0.21333 0.36,-0.48 0,-0.26666 0.16,-0.48 0.36,-0.48 0.198,0 0.36,-0.162 0.36,-0.359999 0,-0.198 0.162,-0.36 0.36,-0.36 0.198,0 0.36,-0.163056 0.36,-0.36235 0,-0.199291 0.216,-0.547293 0.48,-0.773337 0.264,-0.226044 0.48,-0.548986 0.48,-0.717651 0,-0.168664 0.162,-0.306662 0.36,-0.306662 0.198,0 0.36,-0.162 0.36,-0.36 0,-0.198 0.162,-0.36 0.36,-0.36 0.2,0 0.36,-0.213334 0.36,-0.48 0,-0.264 0.10594,-0.48 0.23543,-0.48 0.12948,0 0.30319,-0.27 0.38602,-0.6 0.0828,-0.33 0.30088,-0.6 0.48457,-0.6 0.18369,0 0.33398,-0.162 0.33398,-0.36 0,-0.198 0.162,-0.36 0.36,-0.36 0.2,0 0.36,-0.213334 0.36,-0.48 0,-0.266666 0.16,-0.48 0.36,-0.48 0.198,0 0.36,-0.162 0.36,-0.36 0,-0.198 0.15342,-0.36 0.34093,-0.36 0.18751,0 0.41209,-0.324 0.49907,-0.72 0.087,-0.396 0.31156,-0.72 0.49907,-0.72 0.18751,0 0.34093,-0.108 0.34093,-0.24 0,-0.311266 0.88873,-1.2 1.2,-1.2 0.132,0 0.24,-0.216 0.24,-0.48 0,-0.266666 0.16,-0.48 0.36,-0.48 0.224,0 0.36,-0.226666 0.36,-0.6 0,-0.373334 0.136,-0.6 0.36,-0.6 0.2,0 0.36,-0.213334 0.36,-0.48 0,-0.266666 0.16,-0.48 0.36,-0.48 0.198,0 0.36,-0.162 0.36,-0.36 0,-0.198 0.162,-0.36 0.36,-0.36 0.198,0 0.36,-0.162 0.36,-0.36 0,-0.198 0.162,-0.36 0.36,-0.36 0.198,0 0.36,-0.165389 0.36,-0.367531 0,-0.202145 0.15789,-0.428122 0.35086,-0.502174 0.19298,-0.07405 0.42335,-0.363019 0.51194,-0.642151 0.0886,-0.279132 0.47071,-0.779203 0.84914,-1.111272 0.37843,-0.332069 0.68806,-0.74171 0.68806,-0.910315 0,-0.168607 0.162,-0.306557 0.36,-0.306557 0.198,0 0.36,-0.162 0.36,-0.36 0,-0.198 0.162,-0.36 0.36,-0.36 0.24,0 0.36,-0.24 0.36,-0.72 0,-0.48 0.12,-0.72 0.36,-0.72 0.198,0 0.36,-0.162 0.36,-0.36 0,-0.198 0.162,-0.36 0.36,-0.36 0.198,0 0.36,-0.162 0.36,-0.36 0,-0.198 0.162,-0.36 0.36,-0.36 0.2,0 0.36,-0.213334 0.36,-0.48 0,-0.264 0.15994,-0.48 0.35543,-0.48 0.19548,0 0.42123,-0.262186 0.50166,-0.582634 0.0804,-0.32045 0.29848,-0.641059 0.48457,-0.712468 0.18609,-0.07141 0.33834,-0.295222 0.33834,-0.497367 0,-0.202142 0.162,-0.367531 0.36,-0.367531 0.198,0 0.36,-0.162 0.36,-0.36 0,-0.198 0.162,-0.36 0.36,-0.36 0.198,0 0.36,-0.162 0.36,-0.36 0,-0.198 0.162,-0.36 0.36,-0.36 0.23782,0 0.36,-0.237881 0.36,-0.70093 0,-0.58367 0.12045,-0.727387 0.72,-0.85907 0.396,-0.08698 0.72,-0.311558 0.72,-0.49907 0,-0.18751 0.162,-0.34093 0.36,-0.34093 0.198,0 0.36,-0.09942 0.36,-0.22093 0,-0.121512 0.31498,-0.290112 0.69995,-0.374666 0.38497,-0.08455 0.75958,-0.309137 0.83247,-0.49907 0.0738,-0.192384 0.44588,-0.345334 0.84005,-0.345334 0.38914,0 0.75267,-0.135 0.80784,-0.3 0.13079,-0.391157 4.91582,-0.425515 5.1686,-0.03711 0.0941,0.144588 0.60224,0.331041 1.1292,0.414341 0.52697,0.0833 0.99497,0.262 1.04,0.397111 0.045,0.135113 0.21089,0.245659 0.36855,0.245659 0.15767,0 0.47161,0.216 0.69765,0.48 0.22605,0.264 0.57405,0.48 0.77334,0.48 0.19929,0 0.36235,0.162 0.36235,0.36 0,0.198 0.162,0.36 0.36,0.36 0.198,0 0.36,0.162 0.36,0.36 0,0.198 0.15342,0.36 0.34093,0.36 0.18751,0 0.41209,0.324 0.49907,0.72 0.087,0.396 0.31156,0.72 0.49907,0.72 0.18751,0 0.34093,0.162 0.34093,0.36 0,0.198 0.162,0.36 0.36,0.36 0.198,0 0.36,0.162 0.36,0.36 0,0.198 0.162,0.36 0.36,0.36 0.2,0 0.36,0.213334 0.36,0.48 0,0.266666 0.16,0.48 0.36,0.48 0.198,0 0.36,0.154286 0.36,0.342857 0,0.188573 0.14104,0.485573 0.31343,0.66 0.17239,0.174429 0.385,0.506143 0.47247,0.737143 0.0875,0.231 0.32442,0.42 0.52657,0.42 0.20214,0 0.36753,0.162 0.36753,0.36 0,0.198 0.108,0.36 0.24,0.36 0.132,0 0.24,0.162 0.24,0.36 0,0.199999 0.21333,0.36 0.48,0.36 0.32,0 0.48,0.160001 0.48,0.48 0,0.264 0.10594,0.48 0.23543,0.48 0.12948,0 0.30319,0.27 0.38602,0.6 0.0828,0.33 0.30088,0.6 0.48457,0.6 0.18369,0 0.33398,0.162 0.33398,0.36 0,0.198 0.162,0.36 0.36,0.36 0.2,0 0.36,0.213334 0.36,0.48 0,0.266666 0.16,0.48 0.36,0.48 0.198,0 0.36,0.162 0.36,0.36 0,0.198 0.15342,0.36 0.34093,0.36 0.18751,0 0.41209,0.324 0.49907,0.72 0.087,0.396 0.31156,0.72 0.49907,0.72 0.18751,0 0.34093,0.162 0.34093,0.36 0,0.198 0.108,0.36 0.24,0.36 0.132,0 0.24,0.162 0.24,0.36 0,0.198 0.16539,0.36 0.36753,0.36 0.20215,0 0.4391,0.189 0.52657,0.42 0.0875,0.231 0.30008,0.562714 0.47247,0.737143 0.17239,0.174427 0.31343,0.471427 0.31343,0.66 0,0.188571 0.162,0.342857 0.36,0.342857 0.2,0 0.36,0.213334 0.36,0.48 0,0.266666 0.16,0.48 0.36,0.48 0.198,0 0.36,0.162 0.36,0.36 0,0.198 0.162,0.36 0.36,0.36 0.198,0 0.36,0.162 0.36,0.36 0,0.198 0.162,0.36 0.36,0.36 0.198,0 0.36,0.210802 0.36,0.468446 0,0.257648 0.378,0.835558 0.84,1.284245 0.462,0.44869 0.84,0.939888 0.84,1.091554 0,0.151665 0.162,0.275755 0.36,0.275755 0.198,0 0.36,0.115714 0.36,0.257143 0,0.141427 0.162,0.419143 0.36,0.617143 0.198,0.198 0.36,0.568284 0.36,0.822857 0,0.254571 0.162,0.462857 0.36,0.462857 0.198,0 0.36,0.162 0.36,0.36 0,0.198 0.162,0.36 0.36,0.36 0.198,0 0.36,0.162 0.36,0.36 0,0.198 0.162,0.36 0.36,0.36 0.198,0 0.36,0.162 0.36,0.36 0,0.198 0.162,0.36 0.36,0.36 0.20058,0 0.36,0.213595 0.36,0.48235 0,0.265291 0.216,0.667293 0.48,0.893338 0.264,0.22604 0.48,0.54898 0.48,0.71765 0,0.16866 0.162,0.30666 0.36,0.30666 0.198,0 0.36,0.162 0.36,0.36 0,0.198 0.162,0.36 0.36,0.36 0.198,0 0.36,0.162 0.36,0.36 0,0.198 0.162,0.36 0.36,0.36 0.198,0 0.36,0.162 0.36,0.36 0,0.198 0.162,0.36 0.36,0.36 0.24,0 0.36,0.24 0.36,0.72 0,0.48 0.12,0.72 0.36,0.72 0.198,0 0.36,0.162 0.36,0.36 0,0.198 0.162,0.36 0.36,0.36 0.198,0 0.36,0.16539 0.36,0.36753 0,0.20215 0.162,0.4297 0.36,0.50568 0.198,0.076 0.36,0.28859 0.36,0.47247 0,0.18388 0.15342,0.33432 0.34093,0.33432 0.18751,0 0.41209,0.324 0.49907,0.72 0.087,0.396 0.31156,0.72 0.49907,0.72 0.18751,0 0.34093,0.162 0.34093,0.36 0,0.198 0.162,0.36 0.36,0.36 0.198,0 0.36,0.15045 0.36,0.33432 0,0.18388 0.162,0.39649 0.36,0.47247 0.198,0.076 0.36,0.30354 0.36,0.50568 0,0.20214 0.162,0.36753 0.36,0.36753 0.224,0 0.36,0.22667 0.36,0.6 0,0.37334 0.136,0.6 0.36,0.6 0.2,0 0.36,0.21334 0.36,0.48 0,0.26667 0.16,0.48 0.36,0.48 0.198,0 0.36,0.162 0.36,0.36 0,0.198 0.162,0.36 0.36,0.36 0.198,0 0.36,0.162 0.36,0.36 0,0.198 0.15029,0.36 0.33398,0.36 0.18369,0 0.40244,0.27275 0.48611,0.60611 0.16261,0.6479 0.94384,1.55389 1.33991,1.55389 0.132,0 0.24,0.216 0.24,0.48 0,0.26667 0.16,0.48 0.36,0.48 0.198,0 0.36,0.162 0.36,0.36 0,0.198 0.162,0.36 0.36,0.36 0.224,0 0.36,0.22667 0.36,0.6 0,0.37333 0.136,0.6 0.36,0.6 0.2,0 0.36,0.21333 0.36,0.48 0,0.26667 0.16,0.48 0.36,0.48 0.198,0 0.36,0.162 0.36,0.36 0,0.198 0.162,0.36 0.36,0.36 0.198,0 0.36,0.162 0.36,0.36 0,0.198 0.162,0.36 0.36,0.36 0.198,0 0.36,0.16539 0.36,0.36753 0,0.20215 0.162,0.4297 0.36,0.50568 0.198,0.076 0.36,0.28965 0.36,0.47482 0,0.18517 0.216,0.52161 0.48,0.74766 0.264,0.22604 0.48,0.54898 0.48,0.71765 0,0.16866 0.162,0.30666 0.36,0.30666 0.198,0 0.36,0.162 0.36,0.36 0,0.198 0.162,0.36 0.36,0.36 0.198,0 0.36,0.162 0.36,0.36 0,0.198 0.162,0.36 0.36,0.36 0.24,0 0.36,0.24 0.36,0.72 0,0.48 0.12,0.72 0.36,0.72 0.198,0 0.36,0.162 0.36,0.36 0,0.198 0.162,0.36 0.36,0.36 0.198,0 0.36,0.13795 0.36,0.30656 0,0.1686 0.30963,0.57824 0.68806,0.91031 0.37843,0.33207 0.76054,0.83214 0.84914,1.11127 0.0886,0.27914 0.31896,0.56811 0.51194,0.64216 0.19297,0.074 0.35086,0.30002 0.35086,0.50217 0,0.20214 0.162,0.36753 0.36,0.36753 0.198,0 0.36,0.162 0.36,0.36 0,0.198 0.162,0.36 0.36,0.36 0.2,0 0.36,0.21333 0.36,0.48 0,0.26667 0.16,0.48 0.36,0.48 0.224,0 0.36,0.22667 0.36,0.6 0,0.37333 0.136,0.6 0.36,0.6 0.198,0 0.36,0.162 0.36,0.36 0,0.198 0.162,0.36 0.36,0.36 0.2,0 0.36,0.21333 0.36,0.48 0,0.264 0.108,0.48 0.24,0.48 0.39607,0 1.1773,0.906 1.33991,1.55389 0.0837,0.33336 0.30242,0.60611 0.48611,0.60611 0.18369,0 0.33398,0.162 0.33398,0.36 0,0.198 0.162,0.36 0.36,0.36 0.198,0 0.36,0.162 0.36,0.36 0,0.198 0.162,0.36 0.36,0.36 0.2,0 0.36,0.21333 0.36,0.48 0,0.26667 0.16,0.48 0.36,0.48 0.224,0 0.36,0.22667 0.36,0.6 0,0.37333 0.136,0.6 0.36,0.6 0.198,0 0.36,0.16539 0.36,0.36753 0,0.20215 0.162,0.4297 0.36,0.50568 0.198,0.076 0.36,0.28859 0.36,0.47247 0,0.18387 0.162,0.33432 0.36,0.33432 0.198,0 0.36,0.162 0.36,0.36 0,0.198 0.15342,0.36 0.34093,0.36 0.18751,0 0.41209,0.324 0.49907,0.72 0.087,0.396 0.31156,0.72 0.49907,0.72 0.18751,0 0.34093,0.216 0.34093,0.48 0,0.26667 0.16,0.48 0.36,0.48 0.24,0 0.36,0.24 0.36,0.72 0,0.48 0.12,0.72 0.36,0.72 0.30452,0 0.36,0.57333 0.36,3.72 0,2.98757 -0.0647,3.72 -0.3284,3.72 -0.20463,0 -0.3797,0.38248 -0.46452,1.01484 -0.0749,0.55816 -0.25108,1.05316 -0.3916,1.1 -0.14051,0.0468 -0.25548,0.21623 -0.25548,0.37642 0,0.16019 -0.31943,0.55619 -0.70984,0.88 -0.39041,0.32381 -0.71441,0.72374 -0.72,0.88874 -0.006,0.165 -0.16061,0.3 -0.34448,0.3 -0.18388,0 -0.39649,0.162 -0.47247,0.36 -0.076,0.198 -0.30353,0.36 -0.50568,0.36 -0.20214,0 -0.36753,0.162 -0.36753,0.36 0,0.24 -0.24,0.36 -0.72,0.36 -0.48,0 -0.72,0.12 -0.72,0.36 0,0.24 -0.24,0.36 -0.72,0.36 -0.48,0 -0.72,0.12 -0.72,0.36 0,0.31644 -1.96,0.36 -16.2,0.36 -14.24,0 -16.2,0.0436 -16.2,0.36 0,0.21236 -0.22146,0.36134 -0.54,0.36328 -0.91627,0.006 -1.62,0.27693 -1.62,0.62471 0,0.18261 -0.162,0.33201 -0.36,0.33201 -0.198,0 -0.36,0.162 -0.36,0.36 0,0.198 -0.162,0.36 -0.36,0.36 -0.22205,0 -0.36,0.22534 -0.36,0.58807 0,0.32345 -0.189,0.69385 -0.42,0.82312 -0.39853,0.22303 -0.42312,4.42463 -0.48104,82.21193 -0.0384,51.5941 -0.14557,81.97688 -0.28912,81.97688 -0.12545,0 -0.299,0.378 -0.38568,0.84 -0.0902,0.4811 -0.29998,0.84 -0.49087,0.84 -0.18331,0 -0.33329,0.216 -0.33329,0.48 0,0.60554 -0.76311,1.38144 -1.55389,1.57992 -0.33336,0.0837 -0.60611,0.3024 -0.60611,0.4861 0,0.28288 -3.37781,0.33398 -22.08,0.33398 -19.46667,0 -22.08,-0.0426 -22.08,-0.36 z m 172.32,0 c 0,-0.24 -0.24,-0.36 -0.72,-0.36 -0.48,0 -0.72,-0.12 -0.72,-0.36 0,-0.24 -0.24,-0.36 -0.72,-0.36 -0.48,0 -0.72,-0.12 -0.72,-0.36 0,-0.198 -0.162,-0.36 -0.36,-0.36 -0.198,0 -0.36,-0.162 -0.36,-0.36 0,-0.198 -0.1721,-0.36 -0.38246,-0.36 -0.21036,0 -0.43896,-0.216 -0.50801,-0.48 -0.069,-0.264 -0.27492,-0.48 -0.45751,-0.48 -0.18262,0 -0.33202,-0.162 -0.33202,-0.36 0,-0.198 -0.162,-0.36 -0.36,-0.36 -0.198,0 -0.36,-0.162 -0.36,-0.36 0,-0.198 -0.108,-0.36 -0.24,-0.36 -0.132,0 -0.24,-0.162 -0.24,-0.36 0,-0.19999 -0.21334,-0.36 -0.48,-0.36 -0.37334,0 -0.48,-0.16001 -0.48,-0.72 0,-0.48 -0.12,-0.72 -0.36,-0.72 -0.19999,0 -0.36,-0.21334 -0.36,-0.48 0,-0.26666 -0.16001,-0.48 -0.36,-0.48 -0.198,0 -0.36,-0.162 -0.36,-0.36 0,-0.198 -0.162,-0.36 -0.36,-0.36 -0.198,0 -0.36,-0.162 -0.36,-0.36 0,-0.198 -0.15341,-0.36 -0.34092,-0.36 -0.18751,0 -0.4121,-0.324 -0.49908,-0.72 -0.087,-0.396 -0.31157,-0.72 -0.49908,-0.72 -0.18751,0 -0.34092,-0.162 -0.34092,-0.36 0,-0.198 -0.162,-0.36 -0.36,-0.36 -0.198,0 -0.36,-0.15046 -0.36,-0.33432 0,-0.18389 -0.162,-0.39648 -0.36,-0.47246 -0.198,-0.076 -0.36,-0.30356 -0.36,-0.50568 0,-0.20216 -0.162,-0.36754 -0.36,-0.36754 -0.22399,0 -0.36,-0.22666 -0.36,-0.6 0,-0.37334 -0.13601,-0.6 -0.36,-0.6 -0.19999,0 -0.36,-0.21334 -0.36,-0.48 0,-0.26666 -0.16001,-0.48 -0.36,-0.48 -0.198,0 -0.36,-0.162 -0.36,-0.36 0,-0.198 -0.162,-0.36 -0.36,-0.36 -0.198,0 -0.36,-0.162 -0.36,-0.36 0,-0.198 -0.15029,-0.36 -0.33398,-0.36 -0.1837,0 -0.40244,-0.27274 -0.4861,-0.6061 -0.16262,-0.6479 -0.94385,-1.5539 -1.33992,-1.5539 -0.132,0 -0.24,-0.216 -0.24,-0.48 0,-0.26666 -0.16001,-0.48 -0.36,-0.48 -0.198,0 -0.36,-0.162 -0.36,-0.36 0,-0.198 -0.162,-0.36 -0.36,-0.36 -0.22399,0 -0.36,-0.22666 -0.36,-0.6 0,-0.37334 -0.13601,-0.6 -0.36,-0.6 -0.19999,0 -0.36,-0.21334 -0.36,-0.48 0,-0.26666 -0.16001,-0.48 -0.36,-0.48 -0.198,0 -0.36,-0.162 -0.36,-0.36 0,-0.198 -0.162,-0.36 -0.36,-0.36 -0.198,0 -0.36,-0.16538 -0.36,-0.36754 0,-0.20212 -0.1579,-0.42811 -0.35086,-0.50217 -0.19298,-0.074 -0.42336,-0.363 -0.51194,-0.64215 -0.0886,-0.27912 -0.47071,-0.7792 -0.84914,-1.11127 -0.37844,-0.33206 -0.68806,-0.74172 -0.68806,-0.91032 0,-0.1686 -0.162,-0.30655 -0.36,-0.30655 -0.198,0 -0.36,-0.162 -0.36,-0.36 0,-0.198 -0.162,-0.36 -0.36,-0.36 -0.198,0 -0.36,-0.162 -0.36,-0.36 0,-0.198 -0.162,-0.36 -0.36,-0.36 -0.24,0 -0.36,-0.24 -0.36,-0.72 0,-0.48 -0.12,-0.72 -0.36,-0.72 -0.198,0 -0.36,-0.162 -0.36,-0.36 0,-0.198 -0.162,-0.36 -0.36,-0.36 -0.198,0 -0.36,-0.13795 -0.36,-0.30655 0,-0.1686 -0.31822,-0.58579 -0.70716,-0.9271 -0.38894,-0.34128 -0.77866,-0.90533 -0.86602,-1.25342 -0.0874,-0.34812 -0.30914,-0.63293 -0.49284,-0.63293 -0.18369,0 -0.33398,-0.162 -0.33398,-0.36 0,-0.198 -0.162,-0.36 -0.36,-0.36 -0.198,0 -0.36,-0.162 -0.36,-0.36 0,-0.198 -0.162,-0.36 -0.36,-0.36 -0.19999,0 -0.36,-0.21334 -0.36,-0.48 0,-0.26666 -0.16001,-0.48 -0.36,-0.48 -0.22399,0 -0.36,-0.22666 -0.36,-0.6 0,-0.37334 -0.13601,-0.6 -0.36,-0.6 -0.198,0 -0.36,-0.162 -0.36,-0.36 0,-0.198 -0.162,-0.36 -0.36,-0.36 -0.19999,0 -0.36,-0.21334 -0.36,-0.48 0,-0.26666 -0.16001,-0.48 -0.36,-0.48 -0.198,0 -0.36,-0.162 -0.36,-0.36 0,-0.198 -0.15341,-0.36 -0.34092,-0.36 -0.18751,0 -0.4121,-0.324 -0.49908,-0.72 -0.087,-0.396 -0.31157,-0.72 -0.49908,-0.72 -0.18751,0 -0.34092,-0.162 -0.34092,-0.36 0,-0.198 -0.162,-0.36 -0.36,-0.36 -0.198,0 -0.36,-0.162 -0.36,-0.36 0,-0.198 -0.162,-0.36 -0.36,-0.36 -0.19999,0 -0.36,-0.21334 -0.36,-0.48 0,-0.26666 -0.16001,-0.48 -0.36,-0.48 -0.22399,0 -0.36,-0.22666 -0.36,-0.6 0,-0.37334 -0.13601,-0.6 -0.36,-0.6 -0.198,0 -0.36,-0.16538 -0.36,-0.36754 0,-0.20212 -0.162,-0.42969 -0.36,-0.50568 -0.198,-0.076 -0.36,-0.28857 -0.36,-0.47246 0,-0.18386 -0.162,-0.33432 -0.36,-0.33432 -0.198,0 -0.36,-0.162 -0.36,-0.36 0,-0.198 -0.15341,-0.36 -0.34092,-0.36 -0.18751,0 -0.4121,-0.324 -0.49908,-0.72 -0.087,-0.396 -0.31157,-0.72 -0.49908,-0.72 -0.18751,0 -0.34092,-0.15046 -0.34092,-0.33432 0,-0.18389 -0.162,-0.39648 -0.36,-0.47246 -0.198,-0.076 -0.36,-0.30356 -0.36,-0.50568 0,-0.20216 -0.162,-0.36754 -0.36,-0.36754 -0.198,0 -0.36,-0.162 -0.36,-0.36 0,-0.198 -0.162,-0.36 -0.36,-0.36 -0.198,0 -0.36,-0.162 -0.36,-0.36 0,-0.198 -0.162,-0.36 -0.36,-0.36 -0.24,0 -0.36,-0.24 -0.36,-0.72 0,-0.48 -0.12,-0.72 -0.36,-0.72 -0.198,0 -0.36,-0.162 -0.36,-0.36 0,-0.198 -0.162,-0.36 -0.36,-0.36 -0.198,0 -0.36,-0.162 -0.36,-0.36 0,-0.198 -0.162,-0.36 -0.36,-0.36 -0.198,0 -0.36,-0.138 -0.36,-0.30667 0,-0.16865 -0.216,-0.49159 -0.48,-0.71765 -0.264,-0.22603 -0.48,-0.62803 -0.48,-0.89333 0,-0.26875 -0.15941,-0.48235 -0.36,-0.48235 -0.198,0 -0.36,-0.162 -0.36,-0.36 0,-0.198 -0.162,-0.36 -0.36,-0.36 -0.198,0 -0.36,-0.162 -0.36,-0.36 0,-0.198 -0.162,-0.36 -0.36,-0.36 -0.198,0 -0.36,-0.162 -0.36,-0.36 0,-0.198 -0.162,-0.36 -0.36,-0.36 -0.198,0 -0.36,-0.2083 -0.36,-0.46286 0,-0.25457 -0.162,-0.62484 -0.36,-0.82284 -0.198,-0.198 -0.36,-0.47573 -0.36,-0.61716 0,-0.14144 -0.162,-0.25714 -0.36,-0.25714 -0.198,0 -0.36,-0.16538 -0.36,-0.36754 0,-0.20212 -0.162,-0.42969 -0.36,-0.50568 -0.198,-0.076 -0.36,-0.28857 -0.36,-0.47246 0,-0.18386 -0.16469,-0.33432 -0.366,-0.33432 -0.21466,0 -0.42554,-0.2977 -0.51,-0.72 -0.0792,-0.396 -0.29249,-0.72 -0.474,-0.72 -0.18149,0 -0.33,-0.162 -0.33,-0.36 0,-0.198 -0.162,-0.36 -0.36,-0.36 -0.198,0 -0.36,-0.162 -0.36,-0.36 0,-0.198 -0.162,-0.36 -0.36,-0.36 -0.19999,0 -0.36,-0.21334 -0.36,-0.48 0,-0.26666 -0.16001,-0.48 -0.36,-0.48 -0.198,0 -0.36,-0.1543 -0.36,-0.34286 0,-0.18857 -0.14105,-0.48557 -0.31344,-0.66 -0.17237,-0.17444 -0.38498,-0.50614 -0.47246,-0.73714 -0.0875,-0.231 -0.32444,-0.42 -0.52656,-0.42 -0.20216,0 -0.36754,-0.162 -0.36754,-0.36 0,-0.198 -0.108,-0.36 -0.24,-0.36 -0.132,0 -0.24,-0.162 -0.24,-0.36 0,-0.198 -0.15341,-0.36 -0.34092,-0.36 -0.18751,0 -0.4121,-0.324 -0.49908,-0.72 -0.087,-0.396 -0.31157,-0.72 -0.49908,-0.72 -0.18751,0 -0.34092,-0.162 -0.34092,-0.36 0,-0.198 -0.162,-0.36 -0.36,-0.36 -0.19999,0 -0.36,-0.21334 -0.36,-0.48 0,-0.26666 -0.16,-0.48 -0.36,-0.48 -0.198,0 -0.36,-0.162 -0.36,-0.36 0,-0.198 -0.162,-0.36 -0.36,-0.36 -0.198,0 -0.36,-0.162 -0.36,-0.36 0,-0.198 -0.162,-0.36 -0.36,-0.36 -0.24,0 -0.36,-0.24 -0.36,-0.72 0,-0.55999 -0.10667,-0.72 -0.48,-0.72 -0.26667,0 -0.48,-0.16 -0.48,-0.36 0,-0.198 -0.0994,-0.36 -0.22093,-0.36 -0.12151,0 -0.29209,-0.324 -0.37907,-0.72 -0.087,-0.396 -0.31156,-0.72 -0.49907,-0.72 -0.21601,0 -0.34093,-0.25441 -0.34093,-0.69432 0,-0.40993 -0.15454,-0.75363 -0.3773,-0.83911 -0.32498,-0.12471 -0.36659,-0.64976 -0.3,-3.78604 0.0561,-2.64304 0.15954,-3.66857 0.3773,-3.74089 0.165,-0.0548 0.3,-0.41464 0.3,-0.79964 0,-0.44482 0.12428,-0.7 0.34093,-0.7 0.18751,0 0.41209,-0.324 0.49907,-0.72 0.087,-0.396 0.31156,-0.72 0.49907,-0.72 0.18751,0 0.3455,-0.135 0.35109,-0.3 0.006,-0.165 0.32959,-0.56493 0.72,-0.88874 0.39041,-0.32381 0.70984,-0.72881 0.70984,-0.9 0,-0.18584 0.29011,-0.31126 0.72,-0.31126 0.48,0 0.72,-0.12 0.72,-0.36 0,-0.24 0.24,-0.36 0.72,-0.36 0.48,0 0.72,-0.12 0.72,-0.36 0,-0.31634 1.90666,-0.36 15.72,-0.36 13.81334,0 15.72,-0.0437 15.72,-0.36 0,-0.28308 0.33334,-0.36 1.56,-0.36 1.22666,0 1.56,-0.0769 1.56,-0.36 0,-0.198 0.162,-0.36 0.36,-0.36 0.198,0 0.36,-0.162 0.36,-0.36 0,-0.198 0.162,-0.36 0.36,-0.36 0.198,0 0.36,-0.162 0.36,-0.36 0,-0.198 0.15029,-0.36 0.33398,-0.36 0.1837,0 0.40824,-0.29592 0.49904,-0.6576 0.0908,-0.36167 0.29148,-0.73573 0.44601,-0.83124 0.21353,-0.13197 0.29571,-19.76962 0.34236,-81.8291 0.0434,-57.679251 0.1368,-81.702051 0.31819,-81.814165 0.14124,-0.08729 0.31685,-0.60628 0.39022,-1.153305 0.0827,-0.616548 0.25822,-0.994589 0.46181,-0.994589 0.18062,0 0.32839,-0.216 0.32839,-0.48 0,-0.266666 0.16001,-0.48 0.36,-0.48 0.198,0 0.36,-0.108 0.36,-0.24 0,-0.132 0.162,-0.24 0.36,-0.24 0.19999,0 0.36,-0.213334 0.36,-0.48 0,-0.386342 0.16001,-0.48 0.82001,-0.48 0.45098,0 0.86498,-0.135 0.91997,-0.3 0.0787,-0.236266 4.5202,-0.313579 20.90601,-0.363914 18.41146,-0.05656 20.82214,-0.02203 20.94571,0.3 0.0804,0.20957 0.43512,0.363914 0.83633,0.363914 0.39967,0 0.87187,0.204626 1.10765,0.48 0.22606,0.264 0.549,0.48 0.71765,0.48 0.16867,0 0.30667,0.162 0.30667,0.36 0,0.198 0.162,0.36 0.36,0.36 0.22399,0 0.36,0.226666 0.36,0.6 0,0.373334 0.13601,0.6 0.36,0.6 0.3193,0 0.36,9.213334 0.36,81.479999 0,72.26667 0.0407,81.48 0.36,81.48 0.28001,0 0.36,0.32 0.36,1.44 0,1.12 0.08,1.44 0.36,1.44 0.19999,0 0.36,0.21333 0.36,0.48 0,0.26667 0.16001,0.48 0.36,0.48 0.198,0 0.36,0.162 0.36,0.36 0,0.198 0.162,0.36 0.36,0.36 0.198,0 0.36,0.162 0.36,0.36 0,0.2 0.21334,0.36 0.48,0.36 0.26666,0 0.48,0.16 0.48,0.36 0,0.28308 0.33334,0.36 1.56,0.36 1.22666,0 1.56,0.0769 1.56,0.36 0,0.31634 1.90666,0.36 15.72,0.36 13.81334,0 15.72,0.0437 15.72,0.36 0,0.22519 0.2275,0.36 0.60754,0.36 0.33412,0 0.66715,0.1554 0.74004,0.34533 0.0729,0.18994 0.4475,0.41452 0.83246,0.49907 0.38498,0.0846 0.69996,0.30716 0.69996,0.49467 0,0.18751 0.162,0.34093 0.36,0.34093 0.198,0 0.36,0.162 0.36,0.36 0,0.198 0.15029,0.36 0.33398,0.36 0.1837,0 0.40174,0.27 0.48456,0.6 0.0828,0.33 0.25654,0.6 0.38604,0.6 0.12948,0 0.23542,0.216 0.23542,0.48 0,0.264 0.14777,0.48 0.32839,0.48 0.20359,0 0.37911,0.37804 0.46181,0.99459 0.0734,0.54702 0.2766,1.0831 0.45161,1.19129 0.42103,0.26029 0.42869,6.49729 0.008,6.63748 -0.15111,0.0504 -0.34416,0.46171 -0.42903,0.91411 -0.0878,0.46776 -0.29805,0.82253 -0.4876,0.82253 -0.21032,0 -0.33329,0.26564 -0.33329,0.72 0,0.48 -0.12,0.72 -0.36,0.72 -0.198,0 -0.36,0.162 -0.36,0.36 0,0.198 -0.162,0.36 -0.36,0.36 -0.198,0 -0.36,0.162 -0.36,0.36 0,0.198 -0.162,0.36 -0.36,0.36 -0.19999,0 -0.36,0.21334 -0.36,0.48 0,0.264 -0.15029,0.48 -0.33399,0.48 -0.18369,0 -0.40173,0.27 -0.48456,0.6 -0.0828,0.33 -0.25653,0.6 -0.38604,0.6 -0.12948,0 -0.23541,0.14006 -0.23541,0.31126 0,0.17119 -0.31942,0.57619 -0.70985,0.9 -0.39041,0.3238 -0.71441,0.72374 -0.72,0.88874 -0.006,0.165 -0.16356,0.3 -0.35107,0.3 -0.18751,0 -0.41211,0.324 -0.49908,0.72 -0.087,0.396 -0.31157,0.72 -0.49908,0.72 -0.18751,0 -0.34092,0.162 -0.34092,0.36 0,0.198 -0.162,0.36 -0.36,0.36 -0.19999,0 -0.36,0.21334 -0.36,0.48 0,0.26666 -0.16001,0.48 -0.36,0.48 -0.198,0 -0.36,0.162 -0.36,0.36 0,0.198 -0.15029,0.36 -0.33399,0.36 -0.18369,0 -0.40173,0.27 -0.48456,0.6 -0.0828,0.33 -0.25653,0.6 -0.38604,0.6 -0.12948,0 -0.23541,0.216 -0.23541,0.48 0,0.31999 -0.16001,0.48 -0.48,0.48 -0.26667,0 -0.48,0.16001 -0.48,0.36 0,0.198 -0.108,0.36 -0.24,0.36 -0.132,0 -0.24,0.138 -0.24,0.30667 0,0.16865 -0.216,0.49159 -0.48,0.71765 -0.264,0.22603 -0.48,0.57403 -0.48,0.77333 0,0.19929 -0.162,0.36235 -0.36,0.36235 -0.198,0 -0.36,0.162 -0.36,0.36 0,0.198 -0.162,0.36 -0.36,0.36 -0.19999,0 -0.36,0.21334 -0.36,0.48 0,0.26666 -0.16001,0.48 -0.36,0.48 -0.198,0 -0.36,0.162 -0.36,0.36 0,0.198 -0.15341,0.36 -0.34092,0.36 -0.18751,0 -0.41211,0.324 -0.49908,0.72 -0.087,0.396 -0.25757,0.72 -0.37908,0.72 -0.12151,0 -0.22092,0.162 -0.22092,0.36 0,0.198 -0.138,0.36 -0.30667,0.36 -0.34587,0 -0.96485,0.65474 -1.20118,1.27063 -0.0864,0.22515 -0.32249,0.40937 -0.52462,0.40937 -0.20215,0 -0.36753,0.1157 -0.36753,0.25714 0,0.14143 -0.162,0.41916 -0.36,0.61716 -0.198,0.198 -0.36,0.56827 -0.36,0.82284 0,0.25456 -0.162,0.46286 -0.36,0.46286 -0.198,0 -0.36,0.162 -0.36,0.36 0,0.198 -0.162,0.36 -0.36,0.36 -0.198,0 -0.36,0.162 -0.36,0.36 0,0.198 -0.162,0.36 -0.36,0.36 -0.198,0 -0.36,0.16538 -0.36,0.36754 0,0.20212 -0.162,0.42969 -0.36,0.50568 -0.198,0.076 -0.36,0.28027 -0.36,0.454 0,0.17372 -0.30327,0.62117 -0.67392,0.99432 -0.37063,0.37316 -0.74525,0.86746 -0.83247,1.09846 -0.0872,0.231 -0.32395,0.42 -0.52608,0.42 -0.20215,0 -0.36753,0.162 -0.36753,0.36 0,0.198 -0.0994,0.36 -0.22092,0.36 -0.12151,0 -0.29211,0.324 -0.37908,0.72 -0.087,0.396 -0.31157,0.72 -0.49908,0.72 -0.18751,0 -0.34092,0.162 -0.34092,0.36 0,0.198 -0.162,0.36 -0.36,0.36 -0.198,0 -0.36,0.162 -0.36,0.36 0,0.198 -0.162,0.36 -0.36,0.36 -0.19999,0 -0.36,0.21334 -0.36,0.48 0,0.26666 -0.16001,0.48 -0.36,0.48 -0.198,0 -0.36,0.16306 -0.36,0.36235 0,0.1993 -0.216,0.5473 -0.48,0.77333 -0.264,0.22606 -0.48,0.549 -0.48,0.71765 0,0.16867 -0.162,0.30667 -0.36,0.30667 -0.198,0 -0.36,0.162 -0.36,0.36 0,0.198 -0.162,0.36 -0.36,0.36 -0.198,0 -0.36,0.162 -0.36,0.36 0,0.198 -0.0994,0.36 -0.22092,0.36 -0.12151,0 -0.29211,0.324 -0.37908,0.72 -0.087,0.396 -0.31157,0.72 -0.49908,0.72 -0.18751,0 -0.34092,0.162 -0.34092,0.36 0,0.198 -0.162,0.36 -0.36,0.36 -0.19999,0 -0.36,0.21334 -0.36,0.48 0,0.26666 -0.16001,0.48 -0.36,0.48 -0.198,0 -0.36,0.162 -0.36,0.36 0,0.198 -0.15341,0.36 -0.34092,0.36 -0.18751,0 -0.41211,0.324 -0.49908,0.72 -0.087,0.396 -0.31157,0.72 -0.49908,0.72 -0.18751,0 -0.34092,0.162 -0.34092,0.36 0,0.198 -0.162,0.36 -0.36,0.36 -0.198,0 -0.36,0.162 -0.36,0.36 0,0.198 -0.162,0.36 -0.36,0.36 -0.198,0 -0.36,0.15046 -0.36,0.33432 0,0.18389 -0.162,0.39648 -0.36,0.47246 -0.198,0.076 -0.36,0.30356 -0.36,0.50568 0,0.20216 -0.162,0.36754 -0.36,0.36754 -0.24,0 -0.36,0.24 -0.36,0.72 0,0.48 -0.12,0.72 -0.36,0.72 -0.198,0 -0.36,0.162 -0.36,0.36 0,0.198 -0.162,0.36 -0.36,0.36 -0.198,0 -0.36,0.162 -0.36,0.36 0,0.198 -0.162,0.36 -0.36,0.36 -0.198,0 -0.36,0.162 -0.36,0.36 0,0.198 -0.15341,0.36 -0.34092,0.36 -0.18751,0 -0.41211,0.324 -0.49908,0.72 -0.087,0.396 -0.31157,0.72 -0.49908,0.72 -0.18751,0 -0.34092,0.15046 -0.34092,0.33432 0,0.18389 -0.162,0.39648 -0.36,0.47246 -0.198,0.076 -0.36,0.30356 -0.36,0.50568 0,0.20216 -0.162,0.36754 -0.36,0.36754 -0.198,0 -0.36,0.162 -0.36,0.36 0,0.198 -0.162,0.36 -0.36,0.36 -0.24,0 -0.36,0.24 -0.36,0.72 0,0.48 -0.12,0.72 -0.36,0.72 -0.198,0 -0.36,0.162 -0.36,0.36 0,0.198 -0.162,0.36 -0.36,0.36 -0.198,0 -0.36,0.162 -0.36,0.36 0,0.198 -0.162,0.36 -0.36,0.36 -0.198,0 -0.36,0.138 -0.36,0.30667 0,0.16865 -0.216,0.49159 -0.48,0.71765 -0.264,0.22603 -0.48,0.56249 -0.48,0.74765 0,0.18518 -0.162,0.39883 -0.36,0.47481 -0.198,0.076 -0.36,0.30356 -0.36,0.50568 0,0.20216 -0.162,0.36754 -0.36,0.36754 -0.198,0 -0.36,0.162 -0.36,0.36 0,0.198 -0.162,0.36 -0.36,0.36 -0.198,0 -0.36,0.162 -0.36,0.36 0,0.198 -0.162,0.36 -0.36,0.36 -0.24,0 -0.36,0.24 -0.36,0.72 0,0.48 -0.12,0.72 -0.36,0.72 -0.198,0 -0.36,0.162 -0.36,0.36 0,0.198 -0.162,0.36 -0.36,0.36 -0.198,0 -0.36,0.162 -0.36,0.36 0,0.198 -0.162,0.36 -0.36,0.36 -0.198,0 -0.36,0.16538 -0.36,0.36754 0,0.20212 -0.162,0.42969 -0.36,0.50568 -0.198,0.076 -0.36,0.28857 -0.36,0.47246 0,0.18386 -0.15341,0.33432 -0.34092,0.33432 -0.18751,0 -0.41211,0.324 -0.49908,0.72 -0.087,0.396 -0.31157,0.72 -0.49908,0.72 -0.18751,0 -0.34092,0.162 -0.34092,0.36 0,0.198 -0.162,0.36 -0.36,0.36 -0.198,0 -0.36,0.162 -0.36,0.36 0,0.198 -0.162,0.36 -0.36,0.36 -0.19999,0 -0.36,0.21334 -0.36,0.48 0,0.26666 -0.16001,0.48 -0.36,0.48 -0.22399,0 -0.36,0.22666 -0.36,0.6 0,0.37334 -0.13601,0.6 -0.36,0.6 -0.198,0 -0.36,0.16538 -0.36,0.36754 0,0.20212 -0.162,0.42969 -0.36,0.50568 -0.198,0.076 -0.36,0.28857 -0.36,0.47246 0,0.18386 -0.162,0.33432 -0.36,0.33432 -0.198,0 -0.36,0.162 -0.36,0.36 0,0.198 -0.15341,0.36 -0.34092,0.36 -0.18751,0 -0.41211,0.324 -0.49908,0.72 -0.087,0.396 -0.31157,0.72 -0.49908,0.72 -0.18751,0 -0.34092,0.162 -0.34092,0.36 0,0.198 -0.162,0.36 -0.36,0.36 -0.198,0 -0.36,0.162 -0.36,0.36 0,0.198 -0.162,0.36 -0.36,0.36 -0.198,0 -0.36,0.162 -0.36,0.36 0,0.198 -0.162,0.36 -0.36,0.36 -0.198,0 -0.36,0.15341 -0.36,0.34092 0,0.18751 -0.31498,0.41011 -0.69996,0.49469 -0.38496,0.0845 -0.75958,0.30912 -0.83247,0.49905 -0.075,0.19536 -0.44848,0.34534 -0.86004,0.34534 -0.48669,0 -0.72753,0.11916 -0.72753,0.36 0,0.30286 -0.53333,0.36 -3.36,0.36 -2.82667,0 -3.36,-0.0571 -3.36,-0.36 z"
     id="path167" />
</svg>
