<?xml version="1.0" encoding="UTF-8" standalone="no"?>
<!-- Created with Inkscape (http://www.inkscape.org/) -->

<svg
   version="1.1"
   id="svg1783"
   width="546.1333"
   height="546.1333"
   viewBox="0 0 546.1333 546.1333"
   sodipodi:docname="zoom_reset.svg"
   inkscape:version="1.2.1 (9c6d41e410, 2022-07-14)"
   inkscape:export-filename="awecg\lib\assets\svg_files\zoom_reset.svg"
   inkscape:export-xdpi="96"
   inkscape:export-ydpi="96"
   xmlns:inkscape="http://www.inkscape.org/namespaces/inkscape"
   xmlns:sodipodi="http://sodipodi.sourceforge.net/DTD/sodipodi-0.dtd"
   xmlns="http://www.w3.org/2000/svg"
   xmlns:svg="http://www.w3.org/2000/svg">
  <defs
     id="defs1787" />
  <sodipodi:namedview
     id="namedview1785"
     pagecolor="#ffffff"
     bordercolor="#000000"
     borderopacity="0.25"
     inkscape:showpageshadow="2"
     inkscape:pageopacity="0.0"
     inkscape:pagecheckerboard="0"
     inkscape:deskcolor="#d1d1d1"
     showgrid="false"
     inkscape:zoom="0.54199222"
     inkscape:cx="-101.47747"
     inkscape:cy="59.041438"
     inkscape:window-width="1440"
     inkscape:window-height="837"
     inkscape:window-x="-8"
     inkscape:window-y="-8"
     inkscape:window-maximized="1"
     inkscape:current-layer="g1789" />
  <g
     inkscape:groupmode="layer"
     inkscape:label="Image"
     id="g1789">
    <path
       style="fill:#000000;stroke-width:1.06667"
       d="m 385.32426,332.74048 77.61851,79.20904 c 82.27899,83.96502 83.1276,83.25776 83.15668,92.8 0.0144,4.70935 -3.85577,13.92031 -7.03415,16.74134 -3.46427,3.0748 -11.39119,6.14514 -15.86533,6.14514 -2.34667,0 -6.42667,-0.97357 -9.06667,-2.16348 -3.69116,-1.66368 -23.54432,-19.86441 -83.73333,-80.9802 l -76.44148,-77.61851"
       id="path2882"
       sodipodi:nodetypes="cssssssc" />
    <path
       style="fill:#000000"
       d="m 223.59002,426.1155 c -12.38437,-3.27738 -19.8657,-15.88974 -16.85924,-28.42208 2.57765,-10.74486 11.15527,-17.39844 24.03869,-18.64659 69.73783,-6.75623 123.67327,-55.48688 137.19741,-123.95783 3.07888,-15.58795 3.07888,-39.52579 0,-55.11374 -4.13299,-20.92478 -12.36587,-40.98082 -23.57139,-57.42202 l -5.12602,-7.52111 -0.5,22.5 -0.5,22.5 -3.10608,5.5 c -4.34262,7.68957 -10.31358,11.31707 -19.48084,11.83507 -5.52176,0.31201 -7.69307,-0.0343 -11.36668,-1.81261 -5.49013,-2.65772 -10.80934,-8.619 -12.38584,-13.8809 -0.81354,-2.71535 -1.16056,-18.80552 -1.16056,-53.81124 V 77.924822 l 2.54888,-5.11494 c 2.83959,-5.69831 7.3435,-9.62286 13.56091,-11.81649 6.35975,-2.24385 99.50254,-2.15342 106.12487,0.10303 16.30143,5.55446 21.04201,27.005199 8.69645,39.350758 -5.7099,5.7099 -8.69883,6.50276 -26.65738,7.07127 l -16.22627,0.51368 4.86543,7 c 6.69775,9.6362 14.96152,25.05757 19.82701,37 28.21606,69.25687 15.9108,146.6565 -32.51395,204.51148 -33.81928,40.40525 -83.26581,65.83188 -136.72595,70.30789 -3.33154,0.27893 -8.08116,-0.0484 -10.67945,-0.736 z M 34.122389,409.90416 c -5.1401,-1.82209 -11.00653,-7.39887 -13.4556,-12.79121 -4.12884,-9.09088 -1.0281,-22.19275 6.63563,-28.03815 6.19824,-4.72764 10.32975,-5.54267 28.09643,-5.54267 h 16.37792 l -6.53393,-7.75 c -29.80467,-35.3518 -46.47337,-81.08722 -46.47337,-127.51318 0,-43.6756 13.38892,-84.6848 39.03222,-119.5526 7.65902,-10.414159 24.61247,-28.092868 34.96778,-36.463688 30.795461,-24.89383 68.130311,-39.98323 108.436811,-43.82625 20.35961,-1.94118 28.58504,-0.18917 35.36494,7.53271 2.86045,3.25787 6.19825,11.64405 6.19825,15.57301 0,3.92896 -3.3378,12.31514 -6.19825,15.57301 -5.38756,6.1361 -9.64745,7.61542 -24.76106,8.59874 -16.24104,1.05667 -29.33649,3.60936 -43.18845,8.418699 C 107.78097,105.24622 66.769469,162.6774 66.769469,226.75316 c 0,24.03426 4.63255,44.90311 14.58618,65.70828 6.2204,13.00194 13.75983,24.69156 21.854401,33.88445 l 5.55942,6.31375 0.006,-18.81375 c 0.003,-10.64895 0.48518,-20.54133 1.11071,-22.7945 5.1036,-18.38333 28.90018,-23.83242 41.22048,-9.43893 1.83816,2.14749 3.86437,5.64763 4.50267,7.77811 0.81484,2.71968 1.15402,18.7337 1.1386,53.75758 -0.0246,55.94837 0.18046,54.24902 -7.44061,61.65051 -6.91228,6.71312 -7.18722,6.74265 -61.965571,6.65452 -40.47917,-0.0651 -49.79803,-0.33636 -53.21894,-1.54902 z"
       id="path894" />
  </g>
</svg>
